<mxfile host="app.diagrams.net" modified="2024-01-01T13:15:57.273Z" agent="Mozilla/5.0 (Windows NT 10.0; Win64; x64) AppleWebKit/537.36 (KHTML, like Gecko) Chrome/120.0.0.0 Safari/537.36" etag="rvD6mdYt6Nkm4RUBlk4o" version="22.1.16" type="github">
  <diagram name="Page-1" id="4JTTl32hjAxAc2KPLV1q">
    <mxGraphModel dx="683" dy="355" grid="1" gridSize="10" guides="1" tooltips="1" connect="1" arrows="1" fold="1" page="1" pageScale="1" pageWidth="827" pageHeight="1169" math="0" shadow="0">
      <root>
        <mxCell id="0" />
        <mxCell id="1" parent="0" />
        <mxCell id="5QWqb0GU6tEWoFQHTzEs-4" value="" style="shape=table;startSize=0;container=1;collapsible=0;childLayout=tableLayout;fontSize=16;fillColor=none;movable=0;resizable=0;rotatable=0;deletable=0;editable=0;locked=1;connectable=0;" parent="1" vertex="1">
          <mxGeometry width="441" height="360" as="geometry" />
        </mxCell>
        <mxCell id="5QWqb0GU6tEWoFQHTzEs-5" value="" style="shape=tableRow;horizontal=0;startSize=0;swimlaneHead=0;swimlaneBody=0;strokeColor=inherit;top=0;left=0;bottom=0;right=0;collapsible=0;dropTarget=0;fillColor=none;points=[[0,0.5],[1,0.5]];portConstraint=eastwest;fontSize=16;" parent="5QWqb0GU6tEWoFQHTzEs-4" vertex="1">
          <mxGeometry width="441" height="120" as="geometry" />
        </mxCell>
        <mxCell id="5QWqb0GU6tEWoFQHTzEs-6" value="" style="shape=partialRectangle;html=1;whiteSpace=wrap;connectable=0;strokeColor=inherit;overflow=hidden;fillColor=none;top=0;left=0;bottom=0;right=0;pointerEvents=1;fontSize=16;" parent="5QWqb0GU6tEWoFQHTzEs-5" vertex="1">
          <mxGeometry width="147" height="120" as="geometry">
            <mxRectangle width="147" height="120" as="alternateBounds" />
          </mxGeometry>
        </mxCell>
        <mxCell id="5QWqb0GU6tEWoFQHTzEs-7" value="" style="shape=partialRectangle;html=1;whiteSpace=wrap;connectable=1;strokeColor=inherit;overflow=hidden;fillColor=none;top=0;left=0;bottom=0;right=0;pointerEvents=1;fontSize=16;movable=1;resizable=1;rotatable=1;deletable=1;editable=1;locked=0;" parent="5QWqb0GU6tEWoFQHTzEs-5" vertex="1">
          <mxGeometry x="147" width="147" height="120" as="geometry">
            <mxRectangle width="147" height="120" as="alternateBounds" />
          </mxGeometry>
        </mxCell>
        <mxCell id="5QWqb0GU6tEWoFQHTzEs-8" value="" style="shape=partialRectangle;html=1;whiteSpace=wrap;connectable=0;strokeColor=inherit;overflow=hidden;fillColor=none;top=0;left=0;bottom=0;right=0;pointerEvents=1;fontSize=16;" parent="5QWqb0GU6tEWoFQHTzEs-5" vertex="1">
          <mxGeometry x="294" width="147" height="120" as="geometry">
            <mxRectangle width="147" height="120" as="alternateBounds" />
          </mxGeometry>
        </mxCell>
        <mxCell id="5QWqb0GU6tEWoFQHTzEs-9" value="" style="shape=tableRow;horizontal=0;startSize=0;swimlaneHead=0;swimlaneBody=0;strokeColor=inherit;top=0;left=0;bottom=0;right=0;collapsible=0;dropTarget=0;fillColor=none;points=[[0,0.5],[1,0.5]];portConstraint=eastwest;fontSize=16;" parent="5QWqb0GU6tEWoFQHTzEs-4" vertex="1">
          <mxGeometry y="120" width="441" height="120" as="geometry" />
        </mxCell>
        <mxCell id="5QWqb0GU6tEWoFQHTzEs-10" value="" style="shape=partialRectangle;html=1;whiteSpace=wrap;connectable=0;strokeColor=inherit;overflow=hidden;fillColor=none;top=0;left=0;bottom=0;right=0;pointerEvents=1;fontSize=16;" parent="5QWqb0GU6tEWoFQHTzEs-9" vertex="1">
          <mxGeometry width="147" height="120" as="geometry">
            <mxRectangle width="147" height="120" as="alternateBounds" />
          </mxGeometry>
        </mxCell>
        <mxCell id="5QWqb0GU6tEWoFQHTzEs-11" value="" style="shape=partialRectangle;html=1;whiteSpace=wrap;connectable=0;strokeColor=inherit;overflow=hidden;fillColor=none;top=0;left=0;bottom=0;right=0;pointerEvents=1;fontSize=16;" parent="5QWqb0GU6tEWoFQHTzEs-9" vertex="1">
          <mxGeometry x="147" width="147" height="120" as="geometry">
            <mxRectangle width="147" height="120" as="alternateBounds" />
          </mxGeometry>
        </mxCell>
        <mxCell id="5QWqb0GU6tEWoFQHTzEs-12" value="" style="shape=partialRectangle;html=1;whiteSpace=wrap;connectable=0;strokeColor=inherit;overflow=hidden;fillColor=none;top=0;left=0;bottom=0;right=0;pointerEvents=1;fontSize=16;" parent="5QWqb0GU6tEWoFQHTzEs-9" vertex="1">
          <mxGeometry x="294" width="147" height="120" as="geometry">
            <mxRectangle width="147" height="120" as="alternateBounds" />
          </mxGeometry>
        </mxCell>
        <mxCell id="5QWqb0GU6tEWoFQHTzEs-13" value="" style="shape=tableRow;horizontal=0;startSize=0;swimlaneHead=0;swimlaneBody=0;strokeColor=inherit;top=0;left=0;bottom=0;right=0;collapsible=0;dropTarget=0;fillColor=none;points=[[0,0.5],[1,0.5]];portConstraint=eastwest;fontSize=16;" parent="5QWqb0GU6tEWoFQHTzEs-4" vertex="1">
          <mxGeometry y="240" width="441" height="120" as="geometry" />
        </mxCell>
        <mxCell id="5QWqb0GU6tEWoFQHTzEs-14" value="" style="shape=partialRectangle;html=1;whiteSpace=wrap;connectable=0;strokeColor=inherit;overflow=hidden;fillColor=none;top=0;left=0;bottom=0;right=0;pointerEvents=1;fontSize=16;" parent="5QWqb0GU6tEWoFQHTzEs-13" vertex="1">
          <mxGeometry width="147" height="120" as="geometry">
            <mxRectangle width="147" height="120" as="alternateBounds" />
          </mxGeometry>
        </mxCell>
        <mxCell id="5QWqb0GU6tEWoFQHTzEs-15" value="" style="shape=partialRectangle;html=1;whiteSpace=wrap;connectable=0;strokeColor=inherit;overflow=hidden;fillColor=none;top=0;left=0;bottom=0;right=0;pointerEvents=1;fontSize=16;" parent="5QWqb0GU6tEWoFQHTzEs-13" vertex="1">
          <mxGeometry x="147" width="147" height="120" as="geometry">
            <mxRectangle width="147" height="120" as="alternateBounds" />
          </mxGeometry>
        </mxCell>
        <mxCell id="5QWqb0GU6tEWoFQHTzEs-16" value="" style="shape=partialRectangle;html=1;whiteSpace=wrap;connectable=0;strokeColor=inherit;overflow=hidden;fillColor=none;top=0;left=0;bottom=0;right=0;pointerEvents=1;fontSize=16;" parent="5QWqb0GU6tEWoFQHTzEs-13" vertex="1">
          <mxGeometry x="294" width="147" height="120" as="geometry">
            <mxRectangle width="147" height="120" as="alternateBounds" />
          </mxGeometry>
        </mxCell>
        <mxCell id="b_NOqMb9zB5frFIfICU1-13" value="" style="shape=image;verticalLabelPosition=bottom;labelBackgroundColor=default;verticalAlign=top;aspect=fixed;imageAspect=0;image=data:image/svg+xml,PHN2ZyB4bWxucz0iaHR0cDovL3d3dy53My5vcmcvMjAwMC9zdmciIHhtbG5zOnhsaW5rPSJodHRwOi8vd3d3LnczLm9yZy8xOTk5L3hsaW5rIiB4bWw6c3BhY2U9InByZXNlcnZlIiBpZD0ic3ZnMSIgdmVyc2lvbj0iMS4xIiB2aWV3Qm94PSIwIDAgNTkuODU2MDE4IDU5LjcwMDAwMSIgaGVpZ2h0PSI1OS43MDAwMDFtbSIgd2lkdGg9IjU5Ljg1NjAxOG1tIj48ZGVmcyBpZD0iZGVmczEiLz48ZyB0cmFuc2Zvcm09InRyYW5zbGF0ZSgtNzYuNzQ1OTk2LC03NC44MTkxNjYpIiBzdHlsZT0iZGlzcGxheTppbmxpbmUiIGlkPSJsYXllcjIiPjxpbWFnZSBzdHlsZT0iZGlzcGxheTppbmxpbmUiIHk9Ijc0Ljk2MjE1MSIgeD0iNzcuMjY0OTYxIiBpZD0iaW1hZ2UxIiB4bGluazpocmVmPSJkYXRhOmltYWdlL3BuZztiYXNlNjQsaVZCT1J3MEtHZ29BQUFBTlNVaEVVZ0FBQU9BQUFBRGhDQU1BQUFEbXIwbDJBQUFBZmxCTVZFWC8vLzkzdkI5cXR3Qnd1UUJwdGdCMSYjMTA7dXhoMHV4Unl1Z3YzKy9QUzU3LzYvUGY4L2ZyUTVyeSszYUh1OXVleTE0N3E5T0cyMlpXcjFJU094bExsOGRyeStPemQ3YzY2MjV1bCYjMTA7MFhxQ3dUbkc0YTJvMG4raHozTit2ekRZNnNmSjRyR1N5Rm1aeTJXRndqK1Z5VjZEd1R5UHgxU0p4RWpnN3RQSDRhNWVzZ0QyVlhZSCYjMTA7QUFBTytVbEVRVlI0bk5WZDJXS2lNQlF0Q1VsVVZOeHdRUkNYMXM3OC93OE9DYWlzMlFpUU9VOHo3YlNUWTVLNzM1dXZyOTR4VyszbiYjMTA7Qy84Y1BiYjNPSFljSno0OXQ3ZG9zdzZudjB1di8vKytUeXluaCtnT0FZQ1FFSXdSUWs0T2hEQW1FS2Jmd2ovbmNCK012VkFOQkZOLyYjMTA7bXpJaitFMnFCU2dsQ3NqdGNKbU52V1I1Qk1rUnBkeEUxSXJBRUxyeFp2by9rTno3TVlEQ2ZXdlpTL0E4N01ZbXdNWGxtQjQzSFhJZiYjMTA7a2dCdDltUFRhTUgrbUc1ZEIzSWZqbVJqM3o0R2F3UU1zTXRCUUx5WWpFMnBpTXZWN1hReTYwRFF2Vmx6VkVQSDRPWjlnRUdjakUwdCYjMTA7eFd3TllRL3NHQkNFaDVGdG5ja0drTDdvTVVEZ2o2Z2NaMzNUb3lEQWw5eEYzelMvOVFEME1vb0hxZlg4TlN1VkV0TGIzYXNCWWdseCYjMTA7RTRLTlFYcTdFelNyRi9oQTRGdW8reDJFamRIekluZEllb3lpRy9HdjRodzY0TmNRdnprYzV2S1ZRU0Qzbko2UVE4eUltY2tQR0lFZSYjMTA7QmZocHQ5K202YUtRWTRKZjBvdlpJZ2NNV2pjeHBuY0dkRGZTdmNkWTI1Y0JQSnB2NHB3dGk2eTc4dHVUOGJZdkE0YU4yaTc3Sm9vNyYjMTA7OHZNSEY1NTFJTGRCbElTNVRnYkxMdlM4N1hDcW5RZjRySnFuSGwwWWxleHcwWUhmRG85OVBGL0FwQ0pNTmlrNXdPVG9VNTlmNG83TiYjMTA7NndQa2xxVHBLbDBhMm41dDAvc0R0QU1CL3JqU3M0cVMzZmxFVEVQUWk4ZzNCamk0MlhIOVBvQ1A5OXFTOUxQSHQ5UUNTVGNTUHpnayYjMTA7MnVIZHg3RE4rQ0QzWENQTzZOa0N3V3NuZGZoTllsdkVTeEhZeWU3YkkxMGNaQnFlbmRHcE9yL0FHdkZaQmlKMDIrWWZJelNnWi9XbyYjMTA7ekc4NXFPZW5BZ1NYWHhONlFOM2NUN3FuSzRXcS9GYTJpWmNpNEhKTEQrZzVYK3NoWGF1cVU3aXlTejFVUVUvWHh3S2xpMVUwdUpjMiYjMTA7NzE4T2QvVmVidm8zZEZMaEYxaDcvejRBNFdlOVBzazFoaVJteUg1KzVGWlk4QzlRTTJhczFIOWxWRnhBbUJrMWtuaitCL3hnK1VCRyYjMTA7V01HWXNjNytiSUJiY1p5bVZGRklScmpYZGlzSUJuZGVXVFExVENXamgxT0wvTDgyZ0xvRG56cUZjcEdaNVgrd2Y2QmhxeFpRVWxFNCYjMTA7OWl1SXhtVExTbEpSUE94ekFLc0E1OGFWcDZvYlIwSitDL3NQYUZ1eTdJd2xQSXFkL1FLbTZmNHhNRVVoQ3VHUHZYb3gzTllBNk13ViYjMTA7aDBjajZ5OWdUZjhWOEV3djRaWEw3Mkw3QlVSY3AzWk5CTmFhWjd1RmhoMnVudHNEZ2JWMnMveUF3aDlCV1luQXJiZjlnRFlsbDhxNCYjMTA7WW02T3dtNGZGNE9MaUY5bXJiWHVzbS8xRFlSM2llUUtjK3ZiTHVIU2FoVXZQcDRNdkV2NFk3RVRUeHpKa0NlOWhOdm1iOWtzWVZ6cCYjMTA7b1B5aFhSUEcxa29ZS0x0OVg5a2xiTFlGL3RncVliRGs3Y3ZnZ1RaejFIRGh0VEdBclZyMUJEVkhtNEtIQ3pzM0VEcXFPVDhhNEc3eSYjMTA7Q2Eza1J6UktRNWhQdUtwOTJjWU5sQzlvTGlKb0Rzell4NCtBalY1WlNIcEVTUzFrRTlwR0VBSmZ0K3JsaGh2U2FHUHpLUU5CMHFGbiYjMTA7b3NuZW50cTBnUmpjT1VFSk1mWU51ZXluTlRvUVFYRHNXTmxLU3hOZ1dQclN6aElyRkVGM20zVHY1M0ZxNGQrakRXNEVodTV6WWFSbCYjMTA7T1pVeVRpa0g0NDIrZ1lnQWNFdE1kUTB5aDZKWVZqcXFtWTB3QkdDN050WDFRSEdwU3BuN0tDSUcwVzU2QUw2UG9lbWUxbVZGeWd4WiYjMTA7N3ZPWkVnQ2NuL05pV3JjWlRRQ1ViWmwxZjdGUVNvZnlZWXhTNE5QMmR2UVh5V1hYNndDRVZPc1ZZNGM5RU10T0h5Q25uK2pzSDhMNSYjMTA7WmI5YkJjTTFPNTVMNVJabWxTRHQrQWZ4elE5NzNpUXVtTEgyZHBOOVl5ZVV5VU4vM3MrOVVnRVZvL0FkSkRaRGpta3k0L0pRRTh0aSYjMTA7WE1hSURMVnRTSU5icVA3dDdzb2pDRGNtOWJRQnhJVTJrYTdoYkF5Mm5aeWJMbWkxeTIrZllvU09kaWdCeHhGbFN1dC96ZHA5TXRQMiYjMTA7MHVXRUV2MjRnaEcwSHAzd1UyM1JRVWxnZHpQdUZCK3ZOYVpJSXhRd282OXRhQ053RzN2ZTFKOVcwYlo3NndsUE55VUk0L0hWUW5zRiYjMTA7T28xYVlHWnU3L1d1SUhJN044eDJ4NjRsRFVoQkNWN3BIL1MwSUl6SE44ZSt2aUpPV0ovV1M3S294VTFIQzdhVStnMk15Vi9PcDd4OSYjMTA7OWFKcGxGVWdvTkhqMVFOOFhsa2gzVGlxQ0NmcWFsNVFhalFZUEpkM2pwaW1YK3JJR01pNTJZTmk3ZktLWm1pbkZ2elZ5TGxBK2NhTCYjMTA7ZnVFQmJzM2RxMTF5bzJqSDJDRmVLSHpBTFYyZTV6M0xWelVoYW5Uc1RpZE1BTCtzaTVyWUpGVWphaklVV3JOL1gwZkNMODMrelhwRSYjMTA7MUh3bEtLNW5Id29ybC9BUDB5cXoxWlFhUU1qUFFLdVh3Qk1MU3M4cE14eDkvU29JMGM3VFRBeGlEdEEzLzE5UUJZOGVTb2xkbGQ3SyYjMTA7dmtHUXFMK0Y5bW1ocllvYTVLclZnWEVtd3U0UEpsMmVDbGtKYUkyQ1lKMHI0aVk2U2pEKzJzaXFRYlh1NXA0Ukk4Y1YzaGNtUGxsUCYjMTA7cU53QjdUUk55Q3g4S05PcG14RzhTU3A2YUlILy9zS3YyMWlLVmtWR2NDdHJ5UXl3Y0ZrZ1I5Uzh3NUFSbEN5UGtham1Id3kwYzBWbSYjMTA7WWtWR01KYmlKL09CRFFVMkFFakdwTW9JeXAxUDE0WUlVd1ptVzhyTStQTVVDQ29NRitnZE5GZ210WjVacGdmL3R3MWtyV05TS292WiYjMTA7b3Q5U0JEVkhYZldCQTkyV2VxMXJFNWJaSURrWmdzWW1yM2JHaGFVWmdGVENaNWQ1RXhKUzFCNHZLWE5lSmF2VWFiZ3c5UWRQWW9LViYjMTA7d3N2eGtJMjNrZjI4cVNPWWV2UlBpUk5xeTBNZTM4eHVsaDAya2tBV2t4R2JhdGJvaUN0UldzNGhpNnFKalcwNFdvRkJHUkZVTzA4MCYjMTA7NEp1dVhld3V1WFk4anJUSm9tUHRZNHlyWUdVV2U3SERhNGtabW8vdndmSjVrWHMybFBNZ0NsbDBtaXByREsvcElRb0RVdW1KQmt0eCYjMTA7ME1uQTdPcnVDUE02QXZrRG1rL2w5TVJoUStWaGlEM2d4VS9GWm1RbG9qQ0w0UE5nd3hWYzVQd1FWSkIzZE9kb29Dd1FFT3crZkx3eiYjMTA7RHE4bHVpcGxLNGZYRERrQlFaMkpxMmJ4SHArc0ZwaWwrby9GVGdYVHFTU2lWLzNpL09LSDcwby9SNzBJWmtVTEVxRHRReUdHd1djOCYjMTA7SDFRcSttUDFXMnpnZ3lDRmJlNlpFUzE4cHM4clhjQmNlTEpzRVY4UnRvMU1HQWFGOGRDU0wvZTh3V2d4RmNmWEU2TzZFcnZQK0ZhaSYjMTA7dWc0cVk3TGQ0UmNDQ2RMRXZXTCtlZndCSzJkK3lHZnhYREU2b2hyMEMyV2VSTlhuWnNHTlBFWEtMY1lqaWtmZkhLNEYyYUN1cXhMNCYjMTA7K1RGdU9lVll2c1RTS1FoM2pkUXkyN1c4RUlwYnJEWVN3UVFVN2czNG8vNExLS2VYR2MwdGFSNkhZRlFVZkVCRERERFY4TDVldktMMCYjMTA7TWU3Z01pN2FIbHExVmF5UjRCMnY1clVWakNCRnc5TFRRSHExVlV3enZHc1JlWTBoY21rQWc1aVZIeDdUcTkxa3p1N0hrK1Zkd3FFdCYjMTA7bVhuNUtWK29sL2J4SzA4VWNZSy9TTTFINllqWnJXeFd3YXZlNzJGM3JxQThlWnB3eUpCTVVubUpXWFAvc2p0WGZNcU8xeUE1WEdJaSYjMTA7MkZhV29WMDdUVitCS1ZkQ3RmTWJMamQ0cUQ3N3AxMmJHbVJKeEtML3lGRVVVTU9NME1ERnFWNFQvZHJwakUzcGJuRjhRanlFbmdqcSYjMTA7cnhxNitoWUcrNmdxZmg2bis2WC85SzYzY1dzT2phdi9ESFltTWl0WGkzTkdlNitDWGRTZlRFV3lTYzRtc1BGK0NKVy95Qm1GMEhONiYjMTA7TU1SMUhZVlJoOHJHTE1aVU16SGJ4MUpLREk3WFI0SWFYczJCenk2aHltdytZKzBwU1k2dTEzb3VUUXBoRXowSHFEL3VWY0NCRWFrSCYjMTA7QTJlY005cFA4TjQ3d01ZM2o5eE9OUjA1ajRaNzFaN0s3cVhPYVhVR2pXY0c0MjdweUh5S1BhbC9oNk1LeGRYUnFwaHVXMTU2QjlkdSYjMTA7bVlMOG1ZVkdMN1pkekJoNll2cUZwVTlnODNGQjdXOFFTQ0luNFRhbE1SS09tREdYZ0ptRTk1Yk5vMU9ZdTJiTDF4bUhGc0hmVHREVSYjMTA7RnM2U3E5djZtQnJxSmowcFZybm4zbEw5ZWVCc29ZRnhGVUY0QlMxSGszMkl1SHRWZUg1QTI2UWlwOUd1czdKZkxlNHVoMTM2b1JzdyYjMTA7SjE3dmdMVFdoZkFNMGk1REhTNGJCL0NmK1lPT2dhRVJTYjVCN1dVVHZEd1RhdnNoQVZiaEEwREJkR3RzWkdqRU95ekJLZXpoYktGeSYjMTA7Zmk3RlpIcEd2R3VYZjNUZ1lVTFB6bDVyNTlrbEhIdXQ2Wmt4SHJ5TC95M2NPa3JQMUVpVDArdUQ1QmFzcnpuaE5ZVVV6LzZ3bFNHWCYjMTA7QW1KOXg3YUU1MnNEQ1YvWjhCSk5ybFQ0aVpJRGtpUGxvYkhVenZWOXVRUWFqVHRtVkNSS1o1ZjFFelM3Q0ExQTV1Z1ZrcVZRRk1yaCYjMTA7dnNmQUNaUUU4ODFKOGxqbTlKQzVVdmRuUVRpSy9pMi81cUo1ek1NdWpKQUt1ZTVUcGt1WUZMSnRFazF5L1BFNU1DNHJtY2xsblY0NSYjMTA7aUpYR0tVQVFHWXdtNzhobnhUS3VLMDlWT05Tak9lZXhmTzgzakJ5MWphTWdJRjZZekFZa3hkU1lsTTBzS2dFbXdKK3RrczIzcTdweCYjMTA7RGgzT0NjOW1Vd0hsWkxmY3RSYjJoQktndm5HTUhiZ1pEdS9zaXJVWUR1WThsMVZFTDA4dlVYWnowNFdMbS9KS3BVUFVwaC9Xb0lOViYjMTA7SS9PaHVRc3FyMU9oWU4za0U5R29wOEdxcXkwbzN4S1Y0RitqMzRRdzBSQXE0SFRvb3kwaGlLcjVHb1JWTHNDOHloQkI4RHh1b2xOciYjMTA7d0tpWjNUWHNKWE96cXRHVHRaVGZxTHdDU25DWWZUN0J1cHFIYlVaNk1HRTA3YWNhZW45dFdJUFFCcTBpYml2R21kekZtOWpqUE9QSiYjMTA7d21uNmlJbHk5TDNZVGdITFVjTXJsMkc2ZC9HNnAyNGdiMzUxR3lVODBoaEVjWG5ybUZvdFVMdkhrVjdWNzBOUGZRaEI4bWlOZjlTUyYjMTA7WlRKNGUvZTFmcG9XajRPeVcvUXprOFc3K0NkT2RFZHpWRkgrbW10RElxT3BNaXBWQ1Ayd1c4Nzl1OHMxRFJYRFJSL2tQY0gxWmRmUyYjMTA7R09tOU81aG5GK3ovYkxaaXUxZC9GRlBXMWQyUWFpdlBZcU5UMGovM2JqWUpnbVdHSUpqTVBIVlZNVm4remhmKzdaUlNrN0hwdTh5UyYjMTA7RENCcTdnd3BFc1EvMDYvWmJocjYwZldFUVNPZ0U1K2UyK3N0T3A1OWY3MVlMTUlrbWMrbktTNHBwdk41a29TTGc3K0pidHZzVjZUTSYjMTA7WkswbTBxbHpaUWVhVGJ3Q1FmUTQzdk1sdGE4cC9aem9ReWowN1JDU1B4OVNCNkcvUWRrWUZFeVBFMkh2TnRWVGx0STBTTmxDTlFqYyYjMTA7dVV6cDRqWVVXZGp5eWxiS3I3czFPUDFiTjdvNG1jUkJZWUpmNmxuVUF3R1dQSmVOVDJhcythUnFKMWp5bENhUkRNR0k4VnQyNm9aOCYjMTA7aElvRDNYcnVKZ1RGY09OS052blFML2dEakpVWmZrN3BBbGpCei9STEFyUEhZdVY5ZWJzRHN1TCtvUTcxc20ySS9sSWJ5bzYzcERIcyYjMTA7dzZOTytvZ0hhd0hlKzNsbFpvZHRlRVd6YXowcEQ5N1ZBZ1dCUUo4bDFndDM3RHNJVC8zV3lLL2ljYVdvMjMvWCsyWkVXVVBRRUgxRyYjMTA7djdVbW5JR0F1TytEbUlRL3lrMkV6bkFqSkpmUHdjVXAxdW5GN29BNUdmU2NHaXJZVTRJdmwyWXlRbStjTjhnbURVbTZYbUNzWUU4WiYjMTA7eTlzQUZBMVd0R2xnMVRORmt3VjdtbGdlVmJMYXF2UU1GdXpwWTdLV3JxQlVndEdDdlk1STJydFpOSUVnaUd3WUd2bkdhZ09GMWVmeSYjMTA7N0FnNGhiYk1GZjVnZWhOWDJNdXh3NzVWbS9lQk43OXBWZWtWMkVHQWJIdVJ1UUxXNWFLM2tRU0NaeTlsVWFheFRDS2l1Sk00SlJkdiYjMTA7cHZiZHUxWXM1NXNuemE0TGM0Y0lRd2pnZFgwWjlUbG1UYXltaCtnN3kvNVcwcitJNW5wVFpnQStqNHVMUmU5eDZXQ3l1eVFMLzNpNyYjMTA7UHZPeCt2SHBlYjJkL1VXeVh3MXdKdjhCWkpyWkxrS0lMUmtBQUFBQVNVVk9SSzVDWUlJPSIgcHJlc2VydmVBc3BlY3RSYXRpbz0ibm9uZSIgaGVpZ2h0PSI1OS41MzEyNSIgd2lkdGg9IjU5LjI2NjY2NiIvPjwvZz48ZyB0cmFuc2Zvcm09InRyYW5zbGF0ZSgtNzYuNzQ1OTk2LC03NC44MTkxNjYpIiBzdHlsZT0iZGlzcGxheTppbmxpbmUiIGlkPSJsYXllcjEiPjxjaXJjbGUgcj0iMjkuODUiIGN5PSIxMDQuNjY5MTciIGN4PSIxMDYuNTk1OTkiIGlkPSJwYXRoMTMiIHN0eWxlPSJmaWxsOiM3N2JjMWY7ZmlsbC1vcGFjaXR5OjE7ZmlsbC1ydWxlOmV2ZW5vZGQ7c3Ryb2tlOm5vbmU7c3Ryb2tlLXdpZHRoOjcuNTUyMDU7c3Ryb2tlLWxpbmVqb2luOm1pdGVyO3N0cm9rZS1kYXNoYXJyYXk6bm9uZTtzdHJva2Utb3BhY2l0eToxIi8+PGcgaWQ9Imc5Ij48cGF0aCBpZD0icGF0aDYiIGQ9Im0gMTA5LjU0NDY5LDk0LjY5OTMwMSBjIC0xLjc5MzY4LDAuMjcyOTg5IC0zLjQxNjYyLDAuMzg3Nzc2IC01LjMzMzA2LDAuNDgzNDQ3IC0zLjU3ODExLDAuMjA3OTE2IC02Ljk1ODE4MSwwLjcyNTM2MSAtMTAuMTc3MjcyLDIuNDExNzU3IC0yLjg5MzY4MywxLjU1NzQgLTUuNTMwNjQ0LDQuNTE3Njg1IC02LjYxNDc1Myw2LjY4OTA2NSAtMC42MDMwMDQsMS4yMDc3NiAtMC45MzI1NjMsMi4xOTg1NSAtMS4xOTczNzEsMy4xODc1NiAtMC4zODA0MTMsMS40MjA3NyAtMC41NzYyMjMsMy4zMzUyOCAtMC41MzI2NDYsNC43MTY0MiAwLjE1MzQyMSw0Ljg2MjU3IDIuNjA4NjY4LDcuNzI3ODYgNS40NzI0MDcsOS4wOTA0OCAzLjM2MjAzNywtMC43NTg0NSA2LjE0NTI3MywtMS40MzQ4MyA5LjQyNTgwNSwtMi4yMjIwNCAyLjc0Mjc2LC0wLjY1ODE2IDUuMDExMDIsLTEuMTE5MzIgOS4zOTg0NiwtMy4wMTU5MiAyLjY5MjgsLTEuMTY0MDQgNC44NjIzMiwtMi42MTMzNSA3Ljc3MiwtNS4xMjAxOCAyLjQzMzE0LC0yLjA5NjI2IDQuNjUwMywtNC4wNTAwMyA2Ljc0NjU2LC02Ljg3NzYzIDEuMzg0OTcsLTEuODY4MTYgMi44NzkzMiwtNC4wOTk3NDggMy43Njg5MiwtNy4wNzAyNTcgLTAuNzg5NzIsNS4wODIyNTcgLTQuNTQ2OTIsMTAuNTkyMzQ3IC02LjQ2OTk4LDEzLjExNDcxNyAtMS4zNTM2MywxLjc3NTQ2IC0zLjA1Nzk3LDMuMzAwMzIgLTQuNDc2ODEsNC41MjQxNyAtMi44OTYyMywyLjQ5ODIgLTUuNTE0MTMsMy45NDQ3MiAtNy45MTMxMSw1LjEyNjY1IC01LjI0NTYsMi41ODQ0IC05LjM5MzQ3LDMuMDM0NTUgLTEyLjMzNzc0LDQuMDc1OTYgLTEuMDE2ODY4LDAuMzU5NjggLTEuODM3NjYxLDAuNjI4NTUgLTIuNTkzODE5LDEuMzIzNjYgMCwwIDIuNTIzMjM4LC0wLjM1NDMyIDQuNzg2NDIsLTAuMzM3MDMgMi43ODEwMzksLTAuMDM4MSA0LjQ3ODUzOSwwLjA5MDEgNi4xMjA1MzksMC4xMDk3NSAzLjQwMjU5LDAuMDQwOCA1LjQwODE5LDAuMjQ3NzIgOC44MzQ1NywwLjA0NDIgMy41NzMzOCwtMC4yNDM5MSA2LjMzNTEyLC0wLjYwMzg0IDguMDU1ODUsLTEuMTYyODcgMy41MDg3NiwtMS4xMzk5NCA1LjU0MzczLC0yLjU2OTM0IDYuODkwMTUsLTMuODY3NTEgMS4zNDM5OCwtMS4yOTU4MSAyLjc0OTkzLC0yLjk5MDMgMy45OTU1LC01LjQ2NDQzIDMuMDA0OTQsLTUuOTY4ODYgMi4zNDcyNywtMTIuMzM2NzIgMS41MzM3NCwtMTguNjE1OTgzIC0wLjY4OTI5LC01LjMyMDI1OSAtMS44MzA2OCwtOS4xNTk2NzIgLTMuODc5NCwtMTQuNjk1MTM2IC0yLjY0NDcyLDUuNDU5NjAzIC02LjYyMjMyLDguMDQxNDQ5IC05LjU5ODM1LDkuODI4MjE0IC0zLjg2Njg3LDIuMzIxNjE1IC02Ljg3OTEsMi45OTI3OTkgLTExLjY3NjYxLDMuNzIyOTU2IHoiIHN0eWxlPSJmaWxsOiNmZmZmZmY7ZmlsbC1vcGFjaXR5OjE7c3Ryb2tlOm5vbmU7c3Ryb2tlLXdpZHRoOjEuMzY1O3N0cm9rZS1saW5lam9pbjptaXRlcjtzdHJva2UtZGFzaGFycmF5Om5vbmU7c3Ryb2tlLW9wYWNpdHk6MSIvPjxwYXRoIGlkPSJwYXRoNyIgZD0ibSAxMjYuODU4OTYsODUuODUzNDg1IGMgMi4xOTIwMiwtMi4yOTMzMTYgNC4xMDIyLC02LjIxODMgNC4xMDIyLC02LjIxODMgMS4wMzU0MywzLjE0Mjc5OSAyLjYzMjM2LDYuODkxNDEgMy44MTE5OCwxMi45NzgzOTcgMC4zMjM3LDEuNjcwMzU0IDAuODkyNjgsNS43ODA2NTYgMS4wMjM1OCw3LjQ5Njc5OCAwLjIyMjI1LDIuOTEzNzEgMC4yOTU2Myw1LjkwNjQ4IC0wLjE5MzE4LDguNjM1NzUgLTAuNzIyOTMsNC4wMzY1OSAtMi40MDk4NCw3LjU3MjcgLTQuNTAxOTYsMTAuMDQxNyIgc3R5bGU9ImZpbGw6bm9uZTtmaWxsLW9wYWNpdHk6MC40NTIyODI7c3Ryb2tlOiM3N2JjMWY7c3Ryb2tlLXdpZHRoOjEuMjY1O3N0cm9rZS1saW5lam9pbjptaXRlcjtzdHJva2UtZGFzaGFycmF5Om5vbmU7c3Ryb2tlLW9wYWNpdHk6MSIvPjxlbGxpcHNlIHJ5PSIyLjcxNzg2MDkiIHJ4PSIyLjY1MzkxMTQiIGN4PSI4OC43MzAxNzEiIGN5PSIxMjUuMDUzNTciIGlkPSJwYXRoOSIgc3R5bGU9ImZpbGw6I2ZmZmZmZjtmaWxsLW9wYWNpdHk6MTtzdHJva2U6bm9uZTtzdHJva2Utd2lkdGg6MS4xNTkzO3N0cm9rZS1saW5lam9pbjptaXRlcjtzdHJva2UtZGFzaGFycmF5Om5vbmU7c3Ryb2tlLW9wYWNpdHk6MSIvPjwvZz48L2c+PC9zdmc+;" parent="1" vertex="1">
          <mxGeometry x="39" y="50" width="60" height="60" as="geometry" />
        </mxCell>
        <mxCell id="5QWqb0GU6tEWoFQHTzEs-17" value="Spring" style="text;html=1;strokeColor=none;fillColor=none;align=center;verticalAlign=middle;whiteSpace=wrap;rounded=0;" parent="1" vertex="1">
          <mxGeometry x="60" y="4.5" width="60" height="30" as="geometry" />
        </mxCell>
        <mxCell id="5QWqb0GU6tEWoFQHTzEs-21" value="" style="group" parent="1" vertex="1" connectable="0">
          <mxGeometry width="147" height="40" as="geometry" />
        </mxCell>
        <mxCell id="5QWqb0GU6tEWoFQHTzEs-2" value="&lt;font style=&quot;font-size: 18px;&quot;&gt;1&lt;/font&gt;" style="text;html=1;align=center;verticalAlign=middle;whiteSpace=wrap;rounded=0;arcSize=50;strokeColor=default;glass=0;shadow=0;" parent="5QWqb0GU6tEWoFQHTzEs-21" vertex="1">
          <mxGeometry width="40" height="40" as="geometry" />
        </mxCell>
        <mxCell id="5QWqb0GU6tEWoFQHTzEs-20" value="" style="rounded=0;whiteSpace=wrap;html=1;fillColor=none;" parent="5QWqb0GU6tEWoFQHTzEs-21" vertex="1">
          <mxGeometry x="40" width="107" height="40" as="geometry" />
        </mxCell>
        <mxCell id="5QWqb0GU6tEWoFQHTzEs-22" value="" style="group" parent="1" vertex="1" connectable="0">
          <mxGeometry x="147" width="147" height="40" as="geometry" />
        </mxCell>
        <mxCell id="5QWqb0GU6tEWoFQHTzEs-23" value="&lt;font style=&quot;font-size: 18px;&quot;&gt;2&lt;/font&gt;" style="text;html=1;align=center;verticalAlign=middle;whiteSpace=wrap;rounded=0;arcSize=50;strokeColor=default;glass=0;shadow=0;" parent="5QWqb0GU6tEWoFQHTzEs-22" vertex="1">
          <mxGeometry width="40" height="40" as="geometry" />
        </mxCell>
        <mxCell id="5QWqb0GU6tEWoFQHTzEs-24" value="Apache Tomcat" style="rounded=0;whiteSpace=wrap;html=1;fillColor=none;" parent="5QWqb0GU6tEWoFQHTzEs-22" vertex="1">
          <mxGeometry x="40" width="107" height="40" as="geometry" />
        </mxCell>
        <mxCell id="5QWqb0GU6tEWoFQHTzEs-28" value="" style="group" parent="1" vertex="1" connectable="0">
          <mxGeometry x="294" width="147" height="40" as="geometry" />
        </mxCell>
        <mxCell id="5QWqb0GU6tEWoFQHTzEs-29" value="&lt;font style=&quot;font-size: 18px;&quot;&gt;3&lt;/font&gt;" style="text;html=1;align=center;verticalAlign=middle;whiteSpace=wrap;rounded=0;arcSize=50;strokeColor=default;glass=0;shadow=0;" parent="5QWqb0GU6tEWoFQHTzEs-28" vertex="1">
          <mxGeometry width="40" height="40" as="geometry" />
        </mxCell>
        <mxCell id="5QWqb0GU6tEWoFQHTzEs-30" value="Java" style="rounded=0;whiteSpace=wrap;html=1;fillColor=none;" parent="5QWqb0GU6tEWoFQHTzEs-28" vertex="1">
          <mxGeometry x="40" width="107" height="40" as="geometry" />
        </mxCell>
        <mxCell id="5QWqb0GU6tEWoFQHTzEs-32" value="" style="shape=image;verticalLabelPosition=bottom;labelBackgroundColor=default;verticalAlign=top;aspect=fixed;imageAspect=0;image=data:image/png,iVBORw0KGgoAAAANSUhEUgAAAKcAAAEtCAMAAABalIDUAAABNVBMVEX///8AAADtHib8/PztIyr39/fuKC7z8/PvNTnuJi3k5OS7u7vh4eHuLzTtHSXv7++qqqq1tbXY2NjvOj3vMjajo6MwMDAnJycQEBDwRUbvP0F9fX1ra2tISEjMzMxVVVXDw8PxTU0/Pz+Hh4dhYWFzc3OWlpb2ioAaGhooKCjxUVDyXls3NzeampqFhYVSUlL0b2nzamXyWVdlZWX1enP3looeHh71gHf4pJb2joP6t6b3mo37wK37yLX5rJ395dzQGiH80cB5DxMkCwxeHh5+JyeMKSqaKyyqLS6KHB93FxpLDQ9PIB+dPDvVTkysHSFiLSviYl54PjrabWZlDhFXNDDdg3nDGiAZAwSpaGB+UUoqBQZeNzMwGhnegHevYFmIPzs7FxZKGBevFRvYOjyYExhZCw79O9EmAAAUVklEQVR4nM1d+UMTSRYmNCGaBJMwJkQCoQ0JggZQUTwY12OcdZzLnVl3dWZ2Z3YO/P//hO3rvbpedddBd/h+UjrHl6p696uqpaUFodnf3q/V9uezVmNRFEww3qgBJuuLJqNH87TG4fISHfE0a4P6ovnoUBNxuGg+GnQknvPmohnRCCWetRb9umC91+11quXGoyvz3CFeVO9OM4UQVs0P0Jd51tTX9Absab96igkOFZ5j+SUz/umwvQiWS0t7Ck9J4utT8fHuZeE5El8wkx5PLgvPiSDVipztV8EqaO5Nd474Jbar8KzxGrS5IT89rYDmeCv9rm4uT97GHylPB6WzbDBTzmRFnXde9bT3ladbZdMMjqkxI3jO2HtUrVW6Ag0E/bINfhHBhEl0MFSflu359cSvgyWqyHO0AgN4z1h9uF22z78tft9BNqCKHxKZHBwyWXfWFO164ViXJSIb0LZKpdbL3tOcq8/KNpst+Qvn2ewSPEFUiGmnvKkLRU/5ymzUTlUy0+wnENOu8U7L5LmTspmqZGrZ2lWlnYlYdTxrYfKAEPhM9xBLt3zvk5Dr4+QBsQgz3011oU/LD54Uea9lsrtOLNBUWkbK38tWShGCiUonMdUBtUBjn74zUP4cls+TlJdkHarDVqsdLZHLswKalCClK5R6EEu86qFMq+DZpOjE6rBBPYgk6Vj5Y7fwSy4AcjyWIEknqeswDisbiievRqJaBD13zaCqmVq6EAmXPvKL1OUwsLDth6fOgy9nklKEhOlPoKorG5cuWmXHrp6quuBiNJfahAalYCVGkc097btZWXrctpuya6qDVWS0k7zDKXFGuZMx0UANKknMir+CIYtnQheipMBE8kHESN48wZ/Yc+BJ+e4xCNPvzXMd3rXtoKF2zAhpYLU+26h+5+ZqF0BLkims5L3J+T3WqrROOE3msAqJG7wWnNlWUSjn3RgHVrHmCf/WY8uov2MoMjSsDIwYBG5YLlLSyJsitPkmya0dWr15qU5kjIxhlfJW3Fe7GNBQp5OwSnmrM7drY+47PiJvw5MQ2ZENUTLMMISNIFG62kqzGXpHFGyKtETCIAq4LYwo+QFmsInf18lP2LAgqnGbDDCx8Cc1Ts+p+dppUIGbGSwsEh3mWBF1d0cs0oqB9kPMTZOhA6/CYoHqeZqbpoarzG9fBE+LadF59kWwyNPm8cQKQCEctf2puSDl8jQnStThTGDhnuV/kDHRLSeeFgJf8EmmRN1iEONhKORp/JOdhN6CZ6GnazyiauawUp610ORj2q0ulREtgMX6NIgciqSyPR452ngLeTfguZ9n64PulnPUuW/hiBhFYlqi6+5eXc2ubmjEc4Mm2tj1CuCtysVmkS1Z4gsPvFjaZQkNI/CB6nt7ZW0S2ARyppmCHTn55BNpprCJO4x51o7FRe/qy3GwSg6bZ16OBKJUHdMSVqlhi8894t7W8ckspbBKfNvw5BMD/tNul/+04snZY6pvwQ4WPshSkT+vILyw8bRspLXkOQRVoov7TTGzLAJa8qzNM6LBSfFrc2Bdr7LliWrUR80P7avU1jxBnQTuLojGq7lgnjBngsQPpqPd3dGOEfepS9m3bs+zFqZvxfzXcX+9mayGertXHCRtObV8OsltNm+d/u5oty/FDq2CuNOxy8ZJD07yLHO9mzemrht96HxyEY5zP7NDdFACXDspHe1fQeZyrJt8i0yiCNcyQIEGbGgqinZGnYNz0jos+ODgkMg4DZz7pZzNymmhFmyMR9sDUaO6t9S5B2NKwESifcg71O67jTwq04ZVAL5/KHTm6VPwNdQxnIp2b+dzTFinMExjsbXlvhPSKz9kWLBlKVx3nn7hrWEPEgzovjvPHBNnAjOHF5zHDffdMZ48h2YubzbxB+483eopHFEjLdrz5umQVBdhpEUzb8d93ut+vXwxTJZo1h7nzrPj0d6RITd7D5j68vRq5Uth4lOm4nrqzFPTvGsHA+8iNXvu+rPtUERTUWw/U3dn6Mxz3T+NGaNQOWVhgzvPC6FZnNVqe/L0T2OmKFJOjUvCs+j8gvol4VkU+fjyNAvjvnj95d/ffBXhzduvv9G8Jr9v1Jdncdjxxbffff/97Zs3bmx+duXK9etray/effpIvC6/gcyXZ5E7/4/vfrhz58792ynRmOna6tWVD2+Jl+aaJV+eue7nxx//+eDu3Xv3YqI3M6LRgK6urqy8eK++PG/mfXnmuXU//vro0YOU6P2EaMIzGtDVq1dXVs6V1+fJvC9PvRvyr38/fPLkVsI0Jnobl2jG89oHZZXmNEan+nPf2Q/RVtB/Ojs7e/gwIRqNaDLz3MRHPCOiypv02j61ewNnntrBfBwhYpoS5QcUJ3752p/K+7R5hDTiPHY+3oqm+fPjv8WImMZEhQFlE7+8fO2V/EZtnJyG31uu+8jpKkJM82mEiGlGNBlQlefKL+l09lrQF6RJ5WSZBpfdWAnIXa0/PY5Yfh4hYvr4jON5ExdovD6XI6Lv0neMWRqVntnssfMmTMqt+/ks4vn5s5cvn33+NBnQROQlnldTnsupzI+YgqN9+0ythK48iaz3fx4+fvz06bOXz5+/fPb0aTLxKc944jc3BZ7L175O38Ql5SgumRdhFutTUN2Q//76MBnO5/X682RAswWq4ZnppiZL/M1VWYG9+85FBCJL+9uTh2c4nhnPnPF8kU58LxIVMBmK+cQn7hu0lezn749inuL6vKVdn5HEp25eLMjoykrmE7fgHbhnaRV36bdHtxKeRfKe8Vy+lvojSYcLbLUTlegYTfMRScEIcvbz2wePbiUDmujPpwX6M6KZqfqk1o2xK7cfsMnNmPtZi8pm+//dRaKJQUppPtDYo2U0SWlNHmdnu9uISAWN9hHnP3gcH6D0FP8Q8Xz0JCaa4CxxmZh93xTsOzeeqUFscMmAndFoS3BydjzOXunI7tK9u/GARiP68CzzlzjzflPwl5Z5nllyMa8Y5XMykGw2f7937+6DaERvRUMakeT9T86v46c945lZoUCfrfI600Tm+fpORjQa0xiPUu8Th1Oe9ohnapDAwdBWdYdeR8TITQKv78REU6YJHiBNxU1Oaa58St4IMqLtFrLrpZMh//wv76dEI6Yp7go0VWkHe4QJO12+yu+4Mtlsvr6fEI2ZZohZJjRRKYk8M/vOPpKuS0z9zqmVzdEft29HRGOmCJ4mtzpFMeIOH6QTlZ7H1CpR8c2IaMw05Zr84z5HU1ydEc1r6dt4P53MXHie8KoUEf6KiEZMU6oJyYQlW5zScGaRHJ9PphqNfA97VKL3NzciUinVBNE/k8HMRjOedX44l1MvRCzHEgPq4YHEUHdevt68kTHNcDNlCTR5IWJSJIZn6tmZtdCP51hZ87/8FRGNmSJuEDRxdabKU47alQE1LIJqQSQ/33y2GTPlsBmzpGme07OqHGFk1SdPgHAbPl6JiDKqm8BSoRnreN1oyUlV34OrKBXy1ZWI1ybiM55lRJPjuZxlllUPQ85eeJ5FSp2ZVvv9rysxU8SVhCVBE0JiYuOHHHZ5ijvdovr++hURCcuU5gpHE/KfVCeaJPLO6ZoUkhcCo/tmLWKGFBOSMUsNTXpOxQH1PLBMXJ5bHfj/u7W16xnW1hhLgSZk6jSiLB665tz8lyDgWwQ2WtyJfe9W1xCrqwTLF5ni1Ke6hTHwOz2TPwlxlqhqTLqdrwrIWDIz9AXQDHUfLhwS5seT66iEVAtWP96vXc0oJiTFwXxlQoDPDPitT3ZSEPMj2FI4X1u5mmJFGMsXrHQ0zCu786GX3zGf3KyzT2ee3h/nqysIsJQfXrEix0F+dwBXmfLSSz3yc4Rt15/efViN7M61BMsv/nzLV2J2CmoXXKTkFcRxv1dwc4UA5+Mf37x/dX5+/vb9p29+4R/U9grTG2xqTjxo8utH/EqTjlCTG1mYGTn2SNlwFkM+Wr1dtGVn0jL5YtbCZXPiowwuw6Iun15et9C+6b0bzG20P8oNwNt2yqyFM7oRZzgKzb9kmPcNZuClhf61zd7Wgch1OJi2rNJEuNKdj8fmE0v63vtg3OuPptvzwXx7Our3rKMc1sTlypNvD8jfU7IUBPV6PXCTWPwaR8speAl+qbRcoK53jDyEbosSzyxnhz47RcZi2rPMQ7bROLuESIFgGg9KvYUIFphLp6IYFznX7o2AZs9BksRwuNwbtHCJ2dt4Kbgu+eh/FFlbSZJrHCWfVY+LzFL9BVIjeun35cAXbdg5TXLpoPTD1dHIW0mS0rhS+lUKeEOBzQ1CdeVQ7vJvIDxx+Colk2hx4pkrUJLMN/GpmzU9C1AmqEM6yHhrcVM9cb2CqymYwg7NXi+rpErEaIlrcDHULVSau5Lr8MBQmzkjZAt62RQTWKnQJtWS6t6hZYMmxINTA2eE7ESu5nZB5vAWTzzd0F/6PUnSlxeKLQ59bdhvowOam8G8SMAXFsS2fHq3xQn+vNSYgwPYzqJTb1moES5xirf0a7wAqGsKJB6FKPFWcTyrsEYJcBtevoLBKCWdaOTpV9ixAYYfuVloXJ0t8U3VXS6MCy9v4nGT5kT8r/s2BmtgCTkvg4OrOEz+i6vgpPTr2xhgSvPCJEjsTlJeSNuzjmuFnjhWJMBsZWtjAWIULTbIheZMfFYhgV2zGCNVejs7qMah/iUDUVuC41TJlbwInHi9rd4QprkNpr4apw6AEbk+oTUUtCUGc5VZowRYTtJrmX1hYWBGJKyEHwK9eq3zk4aZsHsNjVOlYqRocQKpHGXRXh3qo64ndTmjcL1t8zyxxaT0m5hlgBrXyu+Uf4xWs/Kb10GAtc7yHi9HKEZVWqMEWJ7TRWXZD0lTSShGVS/Por1pWBZLfwYmb6rjBwDHQpcJzbz+5Gd0IAKYV0gwA2omXZIwDfeS9h/sG6/WGiXAxsNQ84JDptgxAKgoxSAA1pyuipj5AHGwieJeVYqBB3y5tgEntUhxKROUrU9viTNgMrWtCXuoMkGHFWZQygD2r+o0ffZDdpiRrdxqJgDfQmdjoBW5aeCtlolR0ShlqYU9FPdFiBEz8Qe6F8DEo9WsLsXAA6dT59NnL9iHysxB+XUjCmgNddMp79SsMhXCIYDUljbNJN2htRgxYkGS1vmVuiUruYObAETxJ7p1J9URFiPuLJqgdlskEJtsig+XLQvAQGc5xY2VNjX7iwUIvM5yij1glVxlTwIUuK6SJDZcVJn5FAG5WF37jchzUWLEYg9dEC/yXITzmQLiHl14JsiR+/HV3oBKku6GT0EvVdAVogMcCaErrQp7CxcQayLAwmviSKH7b1HWPQYkG2jLLZ7AsYiYGAAxJ60axV3UixMjJii0AhXdkIqpCQDDuE16wELrUum9lHmASucpxVPsCfLZD+QPYEHxFI8nXKS4Q/WFTNpJp2WEVVMTAJ6darsDqXdpcV5IjGPtaEn73BeSAmOQqtcM8ukw7qcHXggg8pUVvXLU+GLFHS24nKxVbhZYpBeyxAznjP7zZVFLKC1izo44ESlcCD1Ej+I5VluSfQ+b8QXw5JtBA+oe3MWKO/Lk1A7VOU0dgFgpgOc2m1fyovsFqyXkyY52oO9gqryeLQF4Yp+C5sq1RaUUAcATzTc56wuou0sAntBpp7tSIHT8/HbYO5rO4w89nU93W2PXIAv0PLQ1aG6KMrpuQ0Z9PDqW++/n037HRXV0JSKaG0Ts92sGLe3lQ9OevTKG8QOemrsbbfsDmnu5t1Nv9G1/N1QK4NwmzQfbddU1NcLIYWCpQMCvG+aPp00Btm12O9IgtOEJiRvgqbmJx1zN13eNL0vZs1imsNiBp+aMS+NZMrjyk8HkoI4MEB+BHElRJjR5GwabTfpAx+HGfDKZzAnRMjYfQAsVZFNw6mBZmAWbLUrId/rhuN1pNBrN9ri1J7uMpgsK4mLWvtbgxKAHy8LEjBAXfR7vKTNb74sztmW2SGFiuQ71AA9ZnsJwmxzAuq4cczIak/X6+lgQVrMiNMyDeA94s7u7Mxkc1eFnaAuLDLLBHeSp8nV+h63RFZIQCSnpjnoj/p5MereLeDYkIznv57c+BF1OUWvLwBzwg+mZHZr95KakdveKGzTanCdhECzASzUjlj0tOI5ByuzNjNpI6lyRojCJgU129Ih1jD6nJfis5vaQI1pUOsUog64FQzIs9yAP8egGmzM/uFCsQOEXnNECj3O0cSD4RgXHlClE2Uzkm1BMwdMFD7D2OdMiHGN1ZNvgxCoq+aoPX0evwFYRT0HQ9x0qYWzqc88KwYYamkm3gKdw0aGF98OBre68jCDufqIdt/xynXDYonOClBHNmQ50Hej1n89zzLtHzgE+y1xv6JdowZ7owzyevEu94bE9BTeX6V2SBvoD9CvyGsZ4x+PEKzvKchvafhpwlwb5PAnlzbe0FV5UWAD8yboTTPGXaFqTYI0r9r3O+8T+OTJ0nSf0L0Y1r9EJwPNY0t8Nzn88Db1pcheP0kRQzWukFXhKkrjORTmTC6nTsdI0qXhg9nR9LLgIBTI9zj+6qNZVVOSkpKAYafxg6myMOu+6Fx/oaYg6zjylA+GZ7ogArMWy/FLIBQwuBl0H5muHyjPU1DrTyryEbGG0+aB2cKGlbrSfE2VycVqL+ypPw2Zz3BMOYjIJv2yAB2rIngKe/6S/OZ6TmA3pwMzDi64osYsCpOWES0LvBmsv0r4IrSkDp1dq90PB1a8zuphkGlLaApeVoH9wnHNulmxSpc7asFtOFRFPL+MvwQrQF89zHalLlGal1Y7Zt2F6rI2DrJeiGMpxw5OwLJbcDon4GONOs73enbGQIV9Z18Vs4aSkKc/Q0NQHagbH1YRT+E2TWelNTOotJhlMzqJbH3f3jvZa4yp6GnS3ii2y+5QEfTnypaNJ3o58eglpEr1T00W28uagz0v9/sliOxDz0Ia8wnzWIn25/wMh6eJnDmCWuwAAAABJRU5ErkJggg==;" parent="1" vertex="1">
          <mxGeometry x="320" y="50" width="33.29" height="60" as="geometry" />
        </mxCell>
        <mxCell id="5QWqb0GU6tEWoFQHTzEs-33" value="" style="shape=image;verticalLabelPosition=bottom;labelBackgroundColor=default;verticalAlign=top;aspect=fixed;imageAspect=0;image=data:image/png,iVBORw0KGgoAAAANSUhEUgAAAKYAAAEwCAMAAAAKHvqvAAAArlBMVEX///9TgqH4mB1LfZ5EeZtOf59Mfp5Fepvb4+lBeJpWhKP4kgDC0Ntzl7D4kAD4lACjucnp7vLJ1d/3+frz9vi5ydWNqb1qkazP2uL4lhKftsfk6u9gi6d/n7ayxNHf5uz+9Ot+nrWVr8H96NX+7+H/+/f7zJ/5q1f5r2D93sL82bn4nS/7xpP81bH5pEP5qE73iAD948v6uXf6vYH7zqP5oTsubpP6s2z7x5T5rVyVnqKlAAAS3ElEQVR4nO1daZuavBoeZA2CgrKJgMo7007bt53TaTtt//8fOwlLEkhAwCXOOd790mtkuU2ePHviw8Md7xB70QSG4ceTaAaD8PVZNINBePzPd9EUBmHxRTSDQVguPommMATfNi+iKQzB82axF81hAF43yw+iOQzA6+ZdzPrrZrYQzWEAfkOaj6JJHMfLZjZ/ByppNpvNv4omcRyL2ewdLPXH90Hz8/xd0IT6aDb/KZrFUWzQEvosmsUx/ANFc7b4RzSNY/iBRnNx84EGXECz2c07xj8Rzc0P0TSOAY3l7dvKYjBvXjSfCpabWw+BX5fFYN74nH9fFKI5E83jCDblArpxS/m3oimaRz/+lFM+v23v6FMlmBvRRHrxT8VycdPO0eO8GsubDtH3y1k1mHvRVHqw32wqlresjB6Xm3cw5f9UcglDtRv2OWpNBKf8htPZPwnLG1bsPzDL+W/RXLrxEcvlDS+f/ZcNZnksTPu0vwYjHr4vCMtZ3yJ/+vryvL8Wqzb+YLGcbTbdLJ6+fvzPF3H5hWeK5XLfddWn58ViIS7d+ThbHh/Lxx/L+WbxKk7pfyZiCeVyz7/mZbGczWcC80lEW6I1zhutpw+b+Wa2Wfx7dW6EwsucsFx+41yx/7FAl8x/CSxpPG7IhHNtz/51gQR3I9R6fqYmfLZgs1pPP0q5nf/aX58cxr8Nlqyq+bMoVcDijwByGM+UWG6WzCr+tCk/X85EFtqefhFtOZt/ay/x/cc6vhTqLe1n1OJZvLY//lorU4Fm5wFFuTTL9jJ+qodyI3TCccagZNnODn6vv8NcrOPZZNlePB/qT1lZuCoaLOftaf2NWYoNiPbzPpbYeopdPA9PtIFkmg++4dyM4ETXL5plWy5vhuUrpdWZNf4XsxScQaK9jXnbg/xRy+VS7Bp/eKKd4I+tD3FuZvNLCDmCv5RgtrNZT1gDiO7q+U4NJiOYv+uvsBQYThR4oaKzdp2PKH3RdZZHejD3rQ9fbmYw/1ABeTukIIMpWjLpOWcG85V8JoIaDSoHw1SgSdpQdHJzT2gyXQdkzpei+yYoB45py/yAxVb4CiI02Xzwb5LfFGwoKX3Ejtg3QpOXorkmiEFnuzK/UBpVBDcaWP7mTNmHsBTf1PNcz+ycyXFQo8l4TtfGz3nnaH7rizyuDKw4WZq/KZrCu4/qMWOX0Acq9hDeDfl53qWQvtNR8dEC1qXRXS2nUwyzudCMJllErG6kww/xq6hTN36mZ134tFfRI8dw02sIfg/BftLHcnLZxsx/mzwF9ydUupPt0ntqLCLh3R5fq2lnPvjTkM7Z5q8AchRKy87ZurJpDqfgzGFFhx3OT61pF9xYXLrHTKKL8qAq6RS82kvxZJvgnpY3NZxlhpDjV35vTrvwrVfPaNw4GeE/DZ7CQ/bSpZuzk/rcmHfx/bCo74inGunUvPjorSxocFRjYxmJXkMPVdsrp+WV1p43QLNoIublDijPc3l9ViwQT46f/tiTwxECxJPjp+NgeCk41qgBeXL89J+4iCU6b1xjv9ywfnqdubuROUfYbzZMVF5nHW6pwfhptmxPe+XHC88lNfD0pV3fr2je2jaCby0tXmok0aVqFi9NT+hT0bsnulLAwd+G5kG7apdDsnJrw3Li2Mki90K82mhMMFSby+PLZ+ckQNE1WZNlBUjx9hw01tvId/LAidbHr/08n82PBr9e+PamJokMdFVC0EBonMRw5+e2Bt7e9MDyBt3wZUADkmFW39izUiAXRFUQTKVoODZQZFkHYTZ4Un7OBzR60F/YC0DBU5LNYePQfJKfAl1W0XT4I27fLzajc8WRXM68qo9cS2vfLqRGVcxs3FeclHj3pIqnOkD2MaK0lGwV2NHIF75MU+peKZ+SZg++JTOV8rvp9m7s675OjSqiSj7BatDlXlwtPHiHP/GVk5CWQyMlA65d55ikJJ+fpRtlad6hHrf1cB5Xn4aMSUqSckYL5kGrmCYAvKXdD02q0YmPPcwFEgU1OZ2nt42yOE0UoEPVpoJD3xNjrXxteOyhmS41eALbn2Rp166BTOsB0lMUWauETjf7p9OqZlI+9nhP1qQmUegUhEFmRdte3bn2vK0RrawMWn07VAGALoWs1fSqB+nOkbdH1SCBYzQf1imQpRZUTdN1Bb5aNcPQPqRpUCBNDwc7DBNT1QHipehwXuHIqSpzP/R/ggHTsqpoKkevhOIZm0Buvwm/kUXHldUQwq8npU40zIz5Qye9YuoHEjTmWi+FXnpo/AEwD7FljLB9ebWEhtsh6Fb7+cGsZax/0KqB1jRNRuyAaQeONcEfrxXSMRlm4e1WfrEsJBlJp44kUKmhF/9Hf5bVxE6DOPNXhjvGdWjAHa7e+7D23O3WMCICw9htXdebTKyJSm1K5nkedyGsq8FUrupIjEYuv4fBxI7HWP/2ukhKZSLnpz3mwvF+MNTt6IPnHM7Fh49MKVlKJ2iNXQouLNcWqEzEhPi3gmsDVT9N4x5DxVKbEqVXcIA6zGeZDr9kqY+w5W0cCudKOZOh4cIpWYKjsUU3cn2009LE1ort/mFKi1do6glyVRswKNzZ2KzJDsZoJvKwVCh0nTe7CTI+KjhJXVIhnIz8Wz866gGtt5HlBKFWEqy/Jcj4V1tI8lUQnpjbTGhHU5WRNw5kM4ROm5P51gp5SchVWll+5sRBGpooRkMxZNsdVRKOEYQhDUpS8T4aB5cbbyAXWIacC/cTeZ1FFITcZ87FeEBDqzURKxggwj+fw4h7Npgca1DQdGDmq3X7yTJIz6WRowRox3n0DKMMKQZWexE5AP55ZEqyH7tcVibFb4ihYscrloylvKlduaQTYDghUIbHmmoR+qoHx+Iu4UjT4ouZXxhrhkoRanYsFUgOrSsd6CEMLbtDX2+sDh4Pz1hlcWAnmlKmOgoU/9XN8ACDSxj5XtKyjgeMNGGoCYGCy9uidscdd0zH9qy27ULwE3D7LDPorN12DgrCNWHAop0QU10FbulzKiPTuO7KuaqYhJWroSkB3+Vpw42yIIQuiAzGJ6gnwyOBmwr9M/OQw9htx/MwvG3kFzU17PTJckewdgGAlsMGI6HCLVIT+xAEQY7KRIcw0ZHLJLejJ129FlFH6fZ/iwqG1lshkuUryehB7+QwCBpIr5IEjk+KL7UzB2fd2IVTiWq6foHgrBORPT4QVjVFzq+d83edpLvqylJENW7niuNIM/VTqLWPBcJlfD6onW46E8tJQxmANzgWXLlHKcsiEJabKa1CNxWV39RZXTTE3WYH1JWhoLGwjK3bvTzXOxQIH0IT2qXin2aGNop/jWkEhw+8kUtQ9FQZ2MO79s4Gd1ge1nVURZPGdu2dEfmAkhBUNii3rIH8+uNYwQLH8vtRUrbEgUBgFJFroHc43dq+XLhG1Q8DSHrf505tBIWyXCn9fYM29tEuW0nrhZuC/upVSJqjtCvGAw2sbKBqwOq5IqP9Xf0sNYVxcC3UdquCtHfxtkyxLl8u18zCKLqyVEkG6RE1aLadBk3R02lNhmOAAs8E9amjodGctnn12kO7euM6YIodW7sLuDdrEniq5aCAgCNobCNFJOvcMpoG3Q/Zzid7Eg1y7i7ys7qZs3ZYoe/A95hdlbfm/W5Xt/LLlORQ9JVFu+2gBi7U/VU3cx5CqagkMM2cyqHDv3FAR0bN9QOz6Knlky0eK6MuPUUv+uHMJCnaOKs+zrKXMz3YdpiYqOpXVjiQO9rZzJl19albpqz3hPVrw4qLBsNBJSqqfbPwjYf0ckKC0Kfvb+a0TF3S026WeGALES/aITnF5mmAPj3KkUiH2O9t5nQdWYe2cADLGl7hmocSCiXKRtxJ5IpuTj1JYz86puM8P0SupDotNeZtDbQSUjtBDcR61T6MaufUVBdzjwrsiJhSdCHLqOLmZAO7Od3MLpexbo7eW8EALmAjiiw/y5w4z8tlU6BcTHnsZJlvRcauJ4LiPHWV173M10zejYG3iqEtqprjFO0GSa6NLFVJwA9DsD4PSQS2KyeVAFHT0Bwl0yvX7tkzAq5RdSYR1YzSI/Zp1XU3Biq06qvdiXEcakyCFt1UWpZOLnJM53BxDSd5e3sDQA0PuZPBVTzMqEOlAI16oclCSUe6t2HRy80FSeCf0beFsh4U3kOZgwGlUrRtqIPyPI9jp0AMVRTSUXYYmjKoLmfsAjKtSpFisk7XjzyuO9RPpgJQtkVhjV40TRUo/s+166U5QhUFNQwc/xqbfV0D7SmANklSyj0tpVmSMd/qP8iZKkodilo0qkF5OVXCpwI6lTvkVVo+tEuZUwP+3y+a53rzeXfccccdd9xxx/8x1hiimfTBeAMVBFYJjsPACfib3jt4p3lO3GmeE3ea58Sd5jlxp3lO3GmeE/87NNFRGRfIXK3Rtqihz+2juUad4XJZKwVAOrQbHbcrDN6jI/xpK63pliVSUO4wSwKqlcyIVl4Eb2376J00DVS2adQuVU2RGuUb402v8MbLr+r4U6oauLYCGTQLzppOTljbpr4HVt5bu37Ip4k2V3Jr17JMl3DwFdwSGe5EJ0ccWQfA7zQAdjWizu4hyDPmZEYezd6tqvRRhHl9Ge8Mia3e/jDWuRwrouWAxsZD6rMldx5Nv7eDXCE8I3whp6mgPodJ0uq2x6S3llweimN4UDC3TBacR3PbPFusnfmnGsXwzTpbzsvk9mdx4+wqpqDQd/gBVzaroyZRa4qehGEo1TXQiid+XoCLemzBPsA0a0Grxhe1UgAVPjeRgUJx1XpOtuTSTFXUfhPG1rYmtHNUQpR0qllk1pknJ8xHHkAU9ZScsupFAdVRD7rrMVya2ZvKtt/ERBS0+m/4eAVJYVQnPnmBdJBKIGQWR3l+QoGek6W4NF1uMZGcM0faKO16LJgZ2yrsy/kFW7Kyug84HGPT6w1OlJrMyFC0LsbyoBwroJKjJLpbYsfQZFUM9QqlZUnrU614uqqFQ/31lc5q5igPCYsbWdd4obTPUMRDf/yoyvoIuZ6BH0Wz7lGkVoUjd9xffyXteE+7Uc8SR/tOoVkvGIrmjqikhh3e1c/Vj59P6ioXp0ncj2bzC57IAbtdsYBfkGaH+xEMF82r0OxwP7A+HbDd4ho0iVtJnyaL38xaJxbeWWh6RtF1BlFrnwbNVOX8FSv3bo29do1V+VyH8aVG0nT9PCmP5Skg8WhS7gehVB251nXkk5GlEmoeaT13Ek3XMQG/8bTxcuJ+ULoHiyYn+ogCpeN4mAk0twf2BFYuTeJ+qNj9wKIJmN5NS1I6nfjxNPO+nZVNmsT9wNtUsNZUW6/bJX0BzFiartSI2dSqh4dPk7gfem2Ta2eirY6yxpevDoAiB/yOpLklT0P9dkka5DGEw13plPuBWWHr1/QlaM9aB7JdPjbGFmIcTQ//rXXEMldv0u5HNcdY5Tc3K2WYpaYHVM/2RL2JfTDdbq6ADprkGaB0GOvhURsuPQlYW73O06wQDtP1tqHroPmAhasKKGqHr2mCyLdvedDTaOIZZM6z7KKJhat0NPCwNaq1EVZSbed3Es2o/gsbj3bRjMisI0PkcOc87bh5Is2828510XxoqqQ6VGzGDN2+7ySatQhxDojvpIndD5RpcLlzjjNf7Hn3k2jW93CSgZ00sfuBPqmtUlO3r7p9pik011NoksM/dGrOGwuaRB1npsmmSjppEmWjbIntbFyBLT+7Mk+iyeqjHpqYhGxl1RJsbd3Eo8mGmpMiy+5UCU4F9ugUNQ/r25shJZZNtZ1tcvEWxR6a2LGqaXblMajUGUdX4VfxQg6EHdGtzVn3iZ8zhGYdqQbYpDR+qYQ+g4RD02n70MzcEu/IpKZpG1J7Z8fQXJH7QFw90HUa6WIOTYN6W3lN+wqbOIdq/RWiQ8MB7aaJ7RzJBlD+tQzsOHMCs443OpdQnQjHYPc+W9RzFTVwsvigtCob3TRXtGIu0fhZj8LBxo+pRoRHM2/WaDg5mcZmXlXWcOFJTpJjNIn9oJKBHUdXKobRfZJx1Jh1Zjk/FHv6uVDsOpXTTRMrPCor7XELbHro1XqHG303SABeQjXj8Sz2A1Y+VTdNXKuhjY5nMrGvVv5KgNJNM6W+W8fJ7T4TrqpKcWpxNafdNPHDm78nFDf2Bqu67pRr3iwiTJ3HwgIyRtdh/dvmQUAaSMo1b5T3du/6x3LdSiivs7A8WQZGliDFt/vVHhHOk7wYbyFxuo9CQKexFDkZXQcSPippXd7buY+fZFbYpbk2Vn6W+atzb6z3IivLMmvgb7sUwPqIVce3BGwa5Mk/hXcF7HjZtNsDUeQDf9ZHCHJSyrvBPbg1KKtww4NJsRz4G3gikBOW+s0uc486F0c+4TcqLoq1QzkB8km/8HJJrE3CUrnwD8mcgjWe8lN+7+PyqHKQsiTy9KsBQFnRqx4yOxEZUOL3sJ+4/QMbd/zv4r/YZzaLy+d60wAAAABJRU5ErkJggg==;" parent="1" vertex="1">
          <mxGeometry x="381" y="50" width="32.76" height="60" as="geometry" />
        </mxCell>
        <mxCell id="BTEo8aVUa5lQYm-5aTE8-1" value="" style="shape=image;verticalLabelPosition=bottom;labelBackgroundColor=default;verticalAlign=top;aspect=fixed;imageAspect=0;image=data:image/svg+xml,PHN2ZyB4bWxucz0iaHR0cDovL3d3dy53My5vcmcvMjAwMC9zdmciIHhtbDpzcGFjZT0icHJlc2VydmUiIGlkPSJzdmcxIiB2ZXJzaW9uPSIxLjEiIHZpZXdCb3g9IjAgMCAyMTUuODk5OTkgMjc5LjQiIGhlaWdodD0iMjc5LjM5OTk5bW0iIHdpZHRoPSIyMTUuODk5OTltbSI+PGRlZnMgaWQ9ImRlZnMxIj48bGluZWFyR3JhZGllbnQgaWQ9InN3YXRjaDUwIj48c3RvcCBpZD0ic3RvcDUwIiBvZmZzZXQ9IjAiIHN0eWxlPSJzdG9wLWNvbG9yOiMwMjAxMDI7c3RvcC1vcGFjaXR5OjE7Ii8+PC9saW5lYXJHcmFkaWVudD48L2RlZnM+PGcgdHJhbnNmb3JtPSJtYXRyaXgoMTkuMjY5ODA5LDAsMCwxOS4yNzQ0OTQsLTE2MDAuNjEwMiwtMzYxNy44ODMpIiBzdHlsZT0iZGlzcGxheTppbmxpbmUiIGlkPSJsYXllcjEiPjxnIGlkPSJnMyI+PHBhdGggaWQ9InBhdGgxIiBkPSJtIDg4LjkxNzAxMSwxOTQuMzk2NjIgYyAtMS4yMzY1OTQsMC4zMjk3IC0yLjIxNjU5NywwLjg4ODE0IC0yLjk0NzU1NCwxLjQzMTc0IC0wLjMzMDQ1OSwwLjI0NTc1IC0wLjU4MTAzMiwwLjQ2NTc0IC0wLjgyOTUxNCwwLjcxNzg1IC0wLjExMzkzNiwwLjExNTYgLTAuMjM5MjA5LDAuMjQ3NTcgLTAuMzQ4MjMxLDAuMzc0MTEgLTAuMjc4MDA2LDAuMzIyNjggLTAuNTk4NzkzLDAuNjg3MjYgLTAuODMwNjgsMS4wMjY3NSAtMC4yMjg3NTcsMC4zMzQ5MSAtMC40MzI2NjgsMC42MDI5OSAtMC42MDA5MDgsMC45NDE5MSAtMC4wMjY1OSwwLjA1MzYgLTAuMDY5NzQsMC4xMDQ2OCAtMC4xMjM0MjgsMC4yNjIxNSBsIC01ZS00LDAuMDE2IDEuMDEzMjA2LC0wLjAwMiBjIC0wLjA2ODY1LC0wLjI2NjI2IDAuMDA4NCwtMC42OTUyIDAuMjM3MTY4LC0xLjA1OTAyIDAuMTIzMjIxLC0wLjE5NTk4IDAuMjY3OTI4LC0wLjM1MTcgMC40NTM0ODYsLTAuNDgyNjMgMC4yMzYwMDUsLTAuMTY2NTEgMC40NjY1NTUsLTAuMjYyOTYgMC42OTA2MjgsLTAuMzEwMzYgMC4yNjU0MTIsLTAuMDU2MSAwLjUxNDYzOCwtMC4wNjU4IDAuNzUxMywtMC4wNTg0IDAuNTUxNzg4LDAuMDE3MyAxLjA1Mzc4LDAuMDY4OCAxLjU1NjMzMiwwLjE2NTIgMC44NjgyOTEsMC4xNjY1MyAxLjcxMjE2MywwLjQxNjExIDIuNTMwMTAzLDAuNzU4ODggMC40MTk4MTMsMC4xNzU5MyAwLjg1MDY3NiwwLjM1MjIyIDEuMjY2Mjc1LDAuNTU2MDkgMC4yMTg3MTgsMC4xMDcyOSAwLjQyODIwMiwwLjE5OTkxIDAuNjQyNzA2LDAuMzExMTcgMC4yMDMwODYsMC4xMDUzNCAwLjQxNjgyMiwwLjIzMjQ0IDAuNjMwODA1LDAuMzI4MDYgbCAxLjA2NTc2MSwtMC4wMDIgYyAwLjAxNDQ1LC0wLjEwMzk0IC0wLjA0OTc2LC0wLjE3OTg0IC0wLjEwMTA1MywtMC4yNTUwOCAtMC4yNzAyMjgsLTAuMzk2NDIgLTAuODQzMjk2LC0wLjM5Mjc1IC0wLjk0MTk0NCwtMC4zNzExNSBsIC0xLjY2Njk1MywtMS43OTM4MyIgc3R5bGU9ImRpc3BsYXk6aW5saW5lO2ZpbGw6I2QxYTQxYjtmaWxsLW9wYWNpdHk6MTtmaWxsLXJ1bGU6ZXZlbm9kZDtzdHJva2U6IzAxMDIwMjtzdHJva2Utd2lkdGg6MC4xOTtzdHJva2UtZGFzaGFycmF5Om5vbmU7c3Ryb2tlLW9wYWNpdHk6MSIvPjxwYXRoIGlkPSJwYXRoMiIgZD0ibSA4OC44MjY4MjQsMTkyLjUxMzk3IGMgLTAuMDY0MywwLjg3ODc1IDAuMDc4ODEsMS42NDUyMiAwLjMyMjE3MywyLjI5MzQxIDAuMjQ5MjI1LDAuNjYzNzkgMC41NTEyNjgsMS4wNTM4MyAxLjA0NzI4MiwxLjU1NzQ0IDAuMTYyNDYxLDAuMTQ3MzcgMC4zMjUzMjUsMC4yOTM2NCAwLjUxNTE3OSwwLjQyNDA4IDAuMTA2MjQ4LDAuMDczIDAuMjgzMDEyLDAuMTk4MDkgMC4zNzcwNDksMC4yNDgzIDAsMCAwLjEzMjM1NywtMC4wODIxIDAuMzE3NjQ4LC0wLjIxMSAwLjExOTU0OCwtMC4wODMyIDAuMjY3MDk2LC0wLjIwNzQxIDAuMzkwNTM2LC0wLjMxMTY4IDAuMjI4MDc1LC0wLjE5MjY1IDAuNDA4MTQ4LC0wLjM5MTg1IDAuNjM2ODQ5LC0wLjcyOTczIDAuMjk1NTg3LC0wLjQzNjcgMC41ODU3MjksLTAuOTQwNTMgMC43NDEyNjMsLTEuNzY3NjIgMC4wNzMxMywtMC4zODg4OSAwLjA5Mzk1LC0wLjkzMTc2IDAuMDQ1NDksLTEuNDQzMjUgLTAuMDI3MTcsLTAuMjg2NzMgLTAuMDc5NCwtMC42MjYyNCAtMC4xMDU0NzcsLTAuNzEyMzIgLTAuMDg2NDksLTAuMjYyODkgLTAuMjQ0NzIxLDAuNDI0NzggLTAuMzM4MTcsMC41NzU3NSAtMC4xNTk5ODUsMC4yNTg0NyAtMC4xODY5NDksMC4yNjg0NyAtMC4zMDY4MTUsMC4zNzEzMSAtMC40NzI5NSwtMC4xMjA3MyAtMC45MjM0NzQsLTAuMTU4NzcgLTEuNDIwMzU0LC0wLjE1MDg2IC0wLjQwMTc5NCwwLjAwNiAtMC44MzY2MDUsMC4wMjMgLTEuMzQ1MTczLDAuMTc3NjMgLTAuMjMzMjI2LC0wLjExNTEyIC0wLjI3MTc2OSwtMC4xNjAxMyAtMC4zOTc0OTMsLTAuMzgyMjggLTAuMTQ5MTk4LC0wLjI2MzYyIC0wLjE2NDY1OSwtMC42NzI4NyAtMC4yNzczMzgsLTAuNjQ0MTkgLTAuMTAzMzU1LC0wLjA5MDkgLTAuMjAyNjQ1LDAuNzA0OTggLTAuMjAyNjQ1LDAuNzA0OTggeiIgc3R5bGU9ImRpc3BsYXk6aW5saW5lO2ZpbGw6I2ZmZGM3NjtmaWxsLW9wYWNpdHk6MTtmaWxsLXJ1bGU6ZXZlbm9kZDtzdHJva2U6IzAxMDIwMjtzdHJva2Utd2lkdGg6MC4yO3N0cm9rZS1saW5lY2FwOmJ1dHQ7c3Ryb2tlLWxpbmVqb2luOm1pdGVyO3N0cm9rZS1taXRlcmxpbWl0OjQ7c3Ryb2tlLWRhc2hhcnJheTpub25lO3N0cm9rZS1vcGFjaXR5OjEiLz48cGF0aCBpZD0icGF0aDMiIGQ9Im0gODguOTExMDc3LDE5MS43MzI1OSBjIDAuNDUxMzM3LDAuMjA0NSAwLjk1MDQyMywwLjUzMzkzIDEuMDQwOTg3LDEuMDIxMDMgMC42NzEyMTgsLTAuMTMyNDcgMS40ODcxMzgsLTAuMTI3MzkgMi4xODg0NjMsLTAuMDM0MyAwLjA2MzIsLTAuMjM1ODUgMC4yODI2MDksLTAuNTI3MzggMC42ODM0NDEsLTAuNzgwODEgMC4xMDg4NywtMC4wNjg4IDAuMjE5NDA3LC0wLjE0MjMgMC4zNTc0MTksLTAuMTg5OTEiIHN0eWxlPSJkaXNwbGF5OmlubGluZTtmaWxsOm5vbmU7ZmlsbC1vcGFjaXR5OjAuNDU1MDczO2ZpbGwtcnVsZTpldmVub2RkO3N0cm9rZTojMDEwMjAyO3N0cm9rZS13aWR0aDowLjE5O3N0cm9rZS1saW5lY2FwOmJ1dHQ7c3Ryb2tlLWxpbmVqb2luOm1pdGVyO3N0cm9rZS1taXRlcmxpbWl0OjQ7c3Ryb2tlLWRhc2hhcnJheTpub25lO3N0cm9rZS1vcGFjaXR5OjEiLz48cGF0aCBpZD0icGF0aDI0IiBkPSJtIDg3LjM5MTA0NywxOTguMzMwMDEgYyAwLjM1MjcyNywtMC4wOTI0IDAuNTQ3NzA1LDAuMDQ2MiAwLjU1ODEwNywwLjIyNzM4IGwgLTAuNjY5NzI3LC0wLjAwNCB6IiBzdHlsZT0iZmlsbDojMDEwMjAyO2ZpbGwtb3BhY2l0eToxO2ZpbGwtcnVsZTpldmVub2RkO3N0cm9rZTojMDEwMjAyO3N0cm9rZS13aWR0aDowLjE5O3N0cm9rZS1kYXNoYXJyYXk6bm9uZTtzdHJva2Utb3BhY2l0eToxIi8+PHBhdGggaWQ9InBhdGgzOSIgZD0ibSA4NS44NzM4MjcsMTk3LjM3NTAzIDAuOTI2MDQyLC0wLjAxMjQgMC4yODkzODgsMC45MTM2NCAtMC4wMjQ3OSwwLjA3NDQgLTAuNTkzNjk1LC0wLjQ3MTQ0IHoiIHN0eWxlPSJmaWxsOiMwMTAyMDI7ZmlsbC1vcGFjaXR5OjE7ZmlsbC1ydWxlOmV2ZW5vZGQ7c3Ryb2tlOiMwMTAyMDI7c3Ryb2tlLXdpZHRoOjAuMDY0OTk5OTtzdHJva2UtbGluZWNhcDpidXR0O3N0cm9rZS1taXRlcmxpbWl0OjUuMjtzdHJva2UtZGFzaGFycmF5Om5vbmU7c3Ryb2tlLW9wYWNpdHk6MTtwYWludC1vcmRlcjpub3JtYWwiLz48cGF0aCB0cmFuc2Zvcm09InNjYWxlKDAuMjY0NTgzMzMpIiBpZD0icGF0aDQ4IiBkPSJtIDMzOC45NjA5NCw3MjguMzc4MTMgYyAtMC4xNDcxLC0wLjA3NyAtMC4zMjY4OCwtMC4xODU0MSAtMC40MTAxNiwtMC4yNDczMSAtMC4wODg5LC0wLjA2NjEgLTAuMjE2NDcsLTAuMTg5MzIgLTAuMjg1MDMsLTAuMjc1MzUgLTAuMTAyOSwtMC4xMjkxMSAtMC4yMzI2NywtMC4zMzU0MyAtMC40MDk0MSwtMC42NTA5MiAtMC4yMjUzOSwtMC40MDIzMyAtMC4yODQxNiwtMC41MzQxMSAtMC40MjkyLC0wLjk2MjM2IC0wLjA4NTYsLTAuMjUyNzQgLTAuMTE1NzEsLTAuMzM3MDggLTAuMTY4MDQsLTAuNDcwNzEgLTAuMDE3MiwtMC4wNDQgLTAuMDI5OCwtMC4wODAxIC0wLjAyOCwtMC4wODAxIDAuMDEyOCwwIDAuMzYxMjQsMC4yMzA4MyAwLjUxNDk1LDAuMzQxMTcgMC44MTM4NiwwLjU4NDIgMS4zODk5NiwxLjI0MjY0IDEuNjc4NjcsMS45MTg1NyAwLjAzNzQsMC4wODc2IDAuMDk3MiwwLjI0OTIgMC4xMTY1OSwwLjMxNSBsIDAuMDExNiwwLjAzOTYgLTAuMDk4OCwwLjAyNTkgYyAtMC4wNTQzLDAuMDE0MiAtMC4xNTk0NiwwLjA0MyAtMC4yMzM2NSwwLjA2MzkgLTAuMDc0MiwwLjAyMDkgLTAuMTM5MjMsMC4wMzggLTAuMTQ0NTMsMC4wMzc5IC0wLjAwNSwtN2UtNSAtMC4wNTcxLC0wLjAyNSAtMC4xMTUxMSwtMC4wNTUzIHoiIHN0eWxlPSJmaWxsOiMwMTAyMDI7ZmlsbC1vcGFjaXR5OjE7ZmlsbC1ydWxlOmV2ZW5vZGQ7c3Ryb2tlOiMwMTAyMDI7c3Ryb2tlLXdpZHRoOjAuMjQ1NjY5O3N0cm9rZS1saW5lY2FwOmJ1dHQ7c3Ryb2tlLW1pdGVybGltaXQ6NDtzdHJva2UtZGFzaGFycmF5Om5vbmU7c3Ryb2tlLW9wYWNpdHk6MTtwYWludC1vcmRlcjpub3JtYWwiLz48cGF0aCB0cmFuc2Zvcm09InNjYWxlKDAuMjY0NTgzMzMpIiBpZD0icGF0aDUwIiBkPSJtIDM0OS4wMTc0OCw3MjguMjM0MTcgLTAuMzA0MzIsLTAuMDY5NyAwLjA5NTYsLTAuMTg3MzggYyAwLjMzNTExLC0wLjY1NjY2IDEuMDA4MTgsLTEuMzc5OTQgMS44MTU2MSwtMS45NTEwNiAwLjA5NjYsLTAuMDY4MyAwLjE3ODE5LC0wLjEyMTY3IDAuMTgxMzIsLTAuMTE4NTQgMC4wMTEyLDAuMDExMiAtMC4zMjYsMC45MTMyOSAtMC4zOTg5MiwxLjA2NzEyIC0wLjI0ODgxLDAuNTI0OCAtMC44ODYwOSwxLjM0MDU1IC0xLjA0MDQ5LDEuMzMxODcgLTAuMDI0NSwtMTBlLTQgLTAuMTgxNDUsLTAuMDMzOSAtMC4zNDg4MiwtMC4wNzIzIHoiIHN0eWxlPSJmaWxsOiMwMjAxMDI7ZmlsbC1vcGFjaXR5OjE7ZmlsbC1ydWxlOmV2ZW5vZGQ7c3Ryb2tlOiMwMTAyMDI7c3Ryb2tlLXdpZHRoOjAuMjQ1NjY5O3N0cm9rZS1saW5lY2FwOmJ1dHQ7c3Ryb2tlLW1pdGVybGltaXQ6NDtzdHJva2UtZGFzaGFycmF5Om5vbmU7c3Ryb2tlLW9wYWNpdHk6MTtwYWludC1vcmRlcjpub3JtYWwiLz48L2c+PGcgc3R5bGU9ImRpc3BsYXk6aW5saW5lIiBpZD0iZzE0Ij48cGF0aCBpZD0icGF0aDQiIGQ9Im0gODcuMDQ5ODU0LDE5Ni4yMjc0NCBjIC0wLjE4NDY3MywwLjYyODUyIC0wLjI3MDA1NSwxLjUyOTg3IDAuMTY3MTY0LDIuMDQzNDUgbCAtMC4xMTkwNjYsMC4yMzkzOCBjIC0wLjMyMTA5OSwtMC4yMjA5MiAtMC45NTAwOTMsLTAuNjk1NzkgLTEuNTE3MDk4LC0xLjI3MTYyIC0wLjMzNzMxLC0wLjM0MjU2IC0wLjY0NTEyNywtMC43MjQ2NCAtMC44NzM4ODYsLTEuMDk5ODYgLTAuMjgwMjA4LC0wLjU0NzMzIC0wLjUyMjE0NiwtMS4xNTkzMiAtMC4yNzI3NjcsLTEuNzY4NTYgMC4xOTE5NzcsLTAuNTU1MTggMC43MjM5NjYsLTAuOTI1MzggMS4yOTg3MzUsLTAuOTI3NzUgMC4xOTE0NTQsLTAuMDEgMC40MTkwMDcsMC4wMTU3IDAuNjA3NzUxLDAuMDQ4NiIgc3R5bGU9ImZpbGw6bm9uZTtmaWxsLW9wYWNpdHk6MC40NTUwNzM7ZmlsbC1ydWxlOmV2ZW5vZGQ7c3Ryb2tlOiMwMTAyMDI7c3Ryb2tlLXdpZHRoOjAuMTk7c3Ryb2tlLWRhc2hhcnJheTpub25lO3N0cm9rZS1vcGFjaXR5OjEiLz48cGF0aCBpZD0icGF0aDUiIGQ9Im0gODYuNDM1MjE0LDE5My40MzA3OCBjIDAuMDkwOCwtMC4yMjc0NSAwLjQwNDEwOSwtMC4wODQ5IDAuNjI3NDkzLDAuMDAzIDAuMjA3MDE4LDAuMTAwMjQgMC40NDg2ODUsMC4yOTIxNiAwLjU2ODgyLDAuNDIxOSAtMC4yOTIwMzMsMC4xMDM0NyAtMC44NDMwMTksMC4xMjExMyAtMS4xMzA1NjEsLTAuMDI0NyAtMC4xNjMzMTQsLTAuMDk1MyAtMC4xMDg3NTUsLTAuMTMxMTQgLTAuMTExNDU2LC0wLjMwMjkgeiIgc3R5bGU9ImZpbGw6IzAxMDIwMjtmaWxsLW9wYWNpdHk6MTtmaWxsLXJ1bGU6ZXZlbm9kZDtzdHJva2U6IzAxMDIwMjtzdHJva2Utd2lkdGg6MC4xOTtzdHJva2UtZGFzaGFycmF5Om5vbmU7c3Ryb2tlLW9wYWNpdHk6MSIvPjxwYXRoIGlkPSJwYXRoNiIgZD0ibSA4Ny45NzgwOTEsMTk0LjgwNTY4IGMgMC4xMDc0ODcsMC4yODkzOSAwLjE3MTU2NiwwLjUxNzc5IDAuMjcwNzg1LDAuODA2MTUgLTAuMjk0MjExLC0wLjE5Mzk2IC0wLjU0ODExNSwtMC4zNjUxOSAtMC44NDAyNTksLTAuNTY2MzgiIHN0eWxlPSJmaWxsOiMwMTAyMDI7ZmlsbC1vcGFjaXR5OjE7ZmlsbC1ydWxlOmV2ZW5vZGQ7c3Ryb2tlOiMwMTAyMDI7c3Ryb2tlLXdpZHRoOjAuMDY0OTk5OTtzdHJva2UtZGFzaGFycmF5Om5vbmU7c3Ryb2tlLW9wYWNpdHk6MSIvPjxwYXRoIGlkPSJwYXRoNyIgZD0ibSA4Ny4wODIwMjIsMTk1LjIyNjMzIGMgMC4wOTk1NiwwLjE3NTAxIDAuMTU4ODE5LDAuMjczNTMgMC4yNTUyODIsMC40NDY0OCBsIC0wLjU2MzI3MywtMC4yODUyNSIgc3R5bGU9ImZpbGw6IzAxMDIwMjtmaWxsLW9wYWNpdHk6MTtmaWxsLXJ1bGU6ZXZlbm9kZDtzdHJva2U6IzAxMDIwMjtzdHJva2Utd2lkdGg6MC4wNjQ5OTk5O3N0cm9rZS1kYXNoYXJyYXk6bm9uZTtzdHJva2Utb3BhY2l0eToxIi8+PHBhdGggaWQ9InBhdGg4IiBkPSJtIDg2LjMxNDExMSwxOTUuNjkyNDUgYyAwLjA0MzA2LDAuMTY2NCAwLjA3NjgzLDAuMjcxODIgMC4xMTk4ODksMC40MzQwOCBsIC0wLjM3NDEzOCwtMC4yNTgzOSIgc3R5bGU9ImZpbGw6IzAxMDIwMjtmaWxsLW9wYWNpdHk6MTtmaWxsLXJ1bGU6ZXZlbm9kZDtzdHJva2U6IzAxMDIwMjtzdHJva2Utd2lkdGg6MC4wNjQ5OTk5O3N0cm9rZS1kYXNoYXJyYXk6bm9uZTtzdHJva2Utb3BhY2l0eToxIi8+PHBhdGggaWQ9InBhdGg5IiBkPSJtIDkxLjQ5MzIwOCwxOTcuMjE2OSBjIC0wLjExOTIwMiwwLjE4NjE3IC0wLjIxOTg1OCwwLjMzOTIgLTAuMjE5ODU4LDAuMzM5MiAwLjI0NTYxNywtMC4xMTIyMyAwLjI2OTYwMiwtMC4xMjIwNiAwLjM3NTgzNywtMC4xNzI4MSIgc3R5bGU9ImZpbGw6IzAxMDIwMjtmaWxsLW9wYWNpdHk6MTtmaWxsLXJ1bGU6ZXZlbm9kZDtzdHJva2U6IzAxMDIwMjtzdHJva2Utd2lkdGg6MC4wNjQ5OTk5O3N0cm9rZS1kYXNoYXJyYXk6bm9uZTtzdHJva2Utb3BhY2l0eToxIi8+PHBhdGggaWQ9InBhdGgzNCIgZD0ibSA5MS45NjEwODUsMTk3LjczNTkxIC0wLjM0MTE3NSwwLjI2NDk5IDAuNDg3NzYxLC0wLjEyODUiIHN0eWxlPSJmaWxsOiMwMTAyMDI7ZmlsbC1vcGFjaXR5OjE7ZmlsbC1ydWxlOmV2ZW5vZGQ7c3Ryb2tlOiMwMTAyMDI7c3Ryb2tlLXdpZHRoOjAuMDY1O3N0cm9rZS1saW5lY2FwOmJ1dHQ7c3Ryb2tlLW1pdGVybGltaXQ6NS4yO3N0cm9rZS1kYXNoYXJyYXk6bm9uZTtzdHJva2Utb3BhY2l0eToxO3BhaW50LW9yZGVyOm5vcm1hbCIvPjxwYXRoIGlkPSJwYXRoMTEiIGQ9Im0gOTMuMDgwNjIyLDE5NC4xMjI1MSAtMC4yODIxNTMsMC4xMTY3OSAwLjI0MTg0NiwwLjAzNTEiIHN0eWxlPSJmaWxsOiMwMTAyMDI7ZmlsbC1vcGFjaXR5OjE7ZmlsbC1ydWxlOmV2ZW5vZGQ7c3Ryb2tlOiMwMTAyMDI7c3Ryb2tlLXdpZHRoOjAuMDY0OTk5OTtzdHJva2UtbWl0ZXJsaW1pdDo0O3N0cm9rZS1kYXNoYXJyYXk6bm9uZTtzdHJva2Utb3BhY2l0eToxIi8+PHBhdGggaWQ9InBhdGgxMiIgZD0ibSA5Mi45MzYxLDE5NC42NjQ3MyAtMC4yMzMyOTQsMC4wNjYgMC4xNzUwOTksMC4wNjMiIHN0eWxlPSJmaWxsOiMwMTAyMDI7ZmlsbC1vcGFjaXR5OjE7ZmlsbC1ydWxlOmV2ZW5vZGQ7c3Ryb2tlOiMwMTAyMDI7c3Ryb2tlLXdpZHRoOjAuMDY0OTk5OTtzdHJva2UtZGFzaGFycmF5Om5vbmU7c3Ryb2tlLW9wYWNpdHk6MSIvPjxwYXRoIGlkPSJwYXRoMTMiIGQ9Im0gODguOTcwNDQzLDE5My44Nzg0IDAuNDUxNTE5LDAuMjM2OTEgLTAuMzgyMzMzLDAuMDI0NSIgc3R5bGU9ImZpbGw6IzAxMDIwMjtmaWxsLW9wYWNpdHk6MTtmaWxsLXJ1bGU6ZXZlbm9kZDtzdHJva2U6IzAxMDIwMjtzdHJva2Utd2lkdGg6MC4wNjQ5OTk5O3N0cm9rZS1taXRlcmxpbWl0OjQuMztzdHJva2UtZGFzaGFycmF5Om5vbmU7c3Ryb2tlLW9wYWNpdHk6MSIvPjxwYXRoIGlkPSJwYXRoMTQiIGQ9Im0gODkuMTE5MTA3LDE5NC40OTU4NiAwLjIzMzk1OSwwLjA4NyAtMC4xODY0MTcsMC4wNDYxIiBzdHlsZT0iZmlsbDojMDEwMjAyO2ZpbGwtb3BhY2l0eToxO2ZpbGwtcnVsZTpldmVub2RkO3N0cm9rZTojMDEwMjAyO3N0cm9rZS13aWR0aDowLjA2NDk5OTk7c3Ryb2tlLW1pdGVybGltaXQ6NDtzdHJva2UtZGFzaGFycmF5Om5vbmU7c3Ryb2tlLW9wYWNpdHk6MSIvPjxwYXRoIGlkPSJwYXRoMjMiIGQ9Im0gOTAuODMyNjk3LDE5Mi43Mzc1OSAwLjI5OTcyNCwwLjY1NjI5IDAuMTg4MTAzLC0wLjY1MzIiIHN0eWxlPSJmaWxsOiMwMTAyMDI7ZmlsbC1vcGFjaXR5OjE7ZmlsbC1ydWxlOmV2ZW5vZGQ7c3Ryb2tlOiMwMTAyMDI7c3Ryb2tlLXdpZHRoOjAuMDY0OTk5OTtzdHJva2UtZGFzaGFycmF5Om5vbmU7c3Ryb2tlLW9wYWNpdHk6MSIvPjwvZz48ZyBzdHlsZT0iZGlzcGxheTppbmxpbmUiIGlkPSJnMjIiPjxwYXRoIGlkPSJwYXRoMTUiIGQ9Im0gODguNzg1MDYsMTk1LjIzMTI2IDEuMTE0NTc3LC0wLjAwMSIgc3R5bGU9ImZpbGw6bm9uZTtmaWxsLW9wYWNpdHk6MTtmaWxsLXJ1bGU6ZXZlbm9kZDtzdHJva2U6IzAxMDIwMjtzdHJva2Utd2lkdGg6MC4xMzU7c3Ryb2tlLWRhc2hhcnJheTpub25lO3N0cm9rZS1vcGFjaXR5OjEiLz48cGF0aCBpZD0icGF0aDE2IiBkPSJtIDg4Ljc4MzIxMSwxOTUuNTU5MSBoIDEuMTE1MTc4IiBzdHlsZT0iZmlsbDojMWY2OWJjO2ZpbGwtb3BhY2l0eTowLjQ1NTA3MztmaWxsLXJ1bGU6ZXZlbm9kZDtzdHJva2U6IzAxMDIwMjtzdHJva2Utd2lkdGg6MC4xMzk2NzQ7c3Ryb2tlLWRhc2hhcnJheTpub25lO3N0cm9rZS1vcGFjaXR5OjEiLz48cGF0aCBpZD0icGF0aDE3IiBkPSJtIDkyLjE4MjE1OCwxOTUuMjMwMDMgMS4xMTYzNjQsMC4wMDEiIHN0eWxlPSJmaWxsOiMxZjY5YmM7ZmlsbC1vcGFjaXR5OjAuNDU1MDczO2ZpbGwtcnVsZTpldmVub2RkO3N0cm9rZTojMDEwMjAyO3N0cm9rZS13aWR0aDowLjE0MDc1NDtzdHJva2UtZGFzaGFycmF5Om5vbmU7c3Ryb2tlLW9wYWNpdHk6MSIvPjxwYXRoIGlkPSJwYXRoMTgiIGQ9Ik0gOTIuMTg0MzUzLDE5NS41NTkxOSBIIDkzLjI5NjgxIiBzdHlsZT0iZmlsbDojMWY2OWJjO2ZpbGwtb3BhY2l0eTowLjQ1NTA3MztmaWxsLXJ1bGU6ZXZlbm9kZDtzdHJva2U6IzAxMDIwMjtzdHJva2Utd2lkdGg6MC4xNDAwNjtzdHJva2UtZGFzaGFycmF5Om5vbmU7c3Ryb2tlLW9wYWNpdHk6MSIvPjxwYXRoIGlkPSJwYXRoMTkiIGQ9Im0gODkuODYxNzQyLDE5My43MzQyMyBjIDAuMTEyMzA0LC0wLjI4NDc4IDAuNDM1NywtMC40NzUzMyAwLjYzNjIyMiwtMC4zNzY3MyAwLjE5NTkxMywwLjA5NjMgMC4yNzk3ODQsMC41MDk5NCAtMC4wMTA3NSwxLjI3MTE4IC0wLjAzOTA0LDAuMTAyMjggLTAuMDk3MDEsMC4xOTQ2IC0wLjE0OTY5OCwwLjMxMDE5IGwgMS4yNTI3MjMsMC43OTU4NiIgc3R5bGU9ImZpbGw6bm9uZTtmaWxsLW9wYWNpdHk6MC40NTUwNzM7ZmlsbC1ydWxlOmV2ZW5vZGQ7c3Ryb2tlOiMwMTAyMDI7c3Ryb2tlLXdpZHRoOjAuMTI7c3Ryb2tlLWRhc2hhcnJheTpub25lO3N0cm9rZS1vcGFjaXR5OjEiLz48cGF0aCBpZD0icGF0aDIwIiBkPSJtIDkyLjUyNTU1OCwxOTMuNzExMjQgYyAtMC4wOTA0MywwLjAwNSAtMC4zNjMxNzIsMC4wMDEgLTAuNTcwMTkyLDAuMTYzNjkgLTAuMDkyNDgsMC4wNzI2IC0wLjE2NTAxNywwLjE4NzY4IC0wLjIxODk4NywwLjMwOTY5IC0wLjA0NzI5LDAuMTA2OTEgLTAuMDg3NTgsMC4yMjYzNSAtMC4wODAxNywwLjM1NzkyIDAuMDA2OSwwLjEyMTc0IDAuMDU2MzMsMC4yNTM4NyAwLjEzNjIxLDAuMzk2MDcgbCAtMC4yODg0NjEsMC4xODMyIC0wLjkwNTY2MiwwLjU5NDkiIHN0eWxlPSJmaWxsOm5vbmU7ZmlsbC1vcGFjaXR5OjAuNDU1MDczO2ZpbGwtcnVsZTpldmVub2RkO3N0cm9rZTojMDEwMjAyO3N0cm9rZS13aWR0aDowLjEyO3N0cm9rZS1kYXNoYXJyYXk6bm9uZTtzdHJva2Utb3BhY2l0eToxIi8+PHBhdGggaWQ9InBhdGgyMSIgZD0ibSA4OS45NzM4NTcsMTk0LjI3OTYgMi4zNTQ2MjgsMC4wMDQiIHN0eWxlPSJmaWxsOiMxZjY5YmM7ZmlsbC1vcGFjaXR5OjAuNDU1MDczO2ZpbGwtcnVsZTpldmVub2RkO3N0cm9rZTojMDEwMjAyO3N0cm9rZS13aWR0aDowLjEyMDQxNTtzdHJva2UtZGFzaGFycmF5Om5vbmU7c3Ryb2tlLW9wYWNpdHk6MSIvPjxwYXRoIGlkPSJwYXRoMjIiIGQ9Im0gOTAuMzM4NjYxLDE5NC45Mzg3MyAxLjQzMDQyMywwLjAwMiIgc3R5bGU9ImZpbGw6IzFmNjliYztmaWxsLW9wYWNpdHk6MC40NTUwNzM7ZmlsbC1ydWxlOmV2ZW5vZGQ7c3Ryb2tlOiMwMTAyMDI7c3Ryb2tlLXdpZHRoOjAuMTI7c3Ryb2tlLWRhc2hhcnJheTpub25lO3N0cm9rZS1vcGFjaXR5OjEiLz48L2c+PC9nPjwvc3ZnPg==;" vertex="1" parent="1">
          <mxGeometry x="190" y="41.25" width="60" height="77.5" as="geometry" />
        </mxCell>
        <mxCell id="BTEo8aVUa5lQYm-5aTE8-2" value="" style="group" vertex="1" connectable="0" parent="1">
          <mxGeometry y="120" width="147" height="40" as="geometry" />
        </mxCell>
        <mxCell id="BTEo8aVUa5lQYm-5aTE8-3" value="&lt;font style=&quot;font-size: 18px;&quot;&gt;4&lt;/font&gt;" style="text;html=1;align=center;verticalAlign=middle;whiteSpace=wrap;rounded=0;arcSize=50;strokeColor=default;glass=0;shadow=0;" vertex="1" parent="BTEo8aVUa5lQYm-5aTE8-2">
          <mxGeometry width="40" height="40" as="geometry" />
        </mxCell>
        <mxCell id="BTEo8aVUa5lQYm-5aTE8-4" value="ERIN" style="rounded=0;whiteSpace=wrap;html=1;fillColor=none;" vertex="1" parent="BTEo8aVUa5lQYm-5aTE8-2">
          <mxGeometry x="40" width="107" height="40" as="geometry" />
        </mxCell>
        <mxCell id="BTEo8aVUa5lQYm-5aTE8-5" value="" style="shape=image;verticalLabelPosition=bottom;labelBackgroundColor=default;verticalAlign=top;aspect=fixed;imageAspect=0;image=data:image/svg+xml,PHN2ZyB4bWxucz0iaHR0cDovL3d3dy53My5vcmcvMjAwMC9zdmciIHhtbDpzcGFjZT0icHJlc2VydmUiIGlkPSJzdmcxIiB2ZXJzaW9uPSIxLjEiIHZpZXdCb3g9IjAgMCA4Ny44MzYzNDIgODIuNDg0NTQzIiBoZWlnaHQ9IjgyLjQ4NDU0M21tIiB3aWR0aD0iODcuODM2MzQybW0iPjxkZWZzIGlkPSJkZWZzMSIvPjxnIHRyYW5zZm9ybT0idHJhbnNsYXRlKC02MC40MTA3OTUsLTkwLjEyMjAzKSIgc3R5bGU9ImRpc3BsYXk6aW5saW5lIiBpZD0ibGF5ZXIyIj48cGF0aCBpZD0icGF0aDMiIGQ9Im0gODguODUyMjA0LDExNC4zODM5MyBjIDEuMDk2MzU5LDIuODQ1NDUgMi4zODgxNDUsNC45NDM1OSAzLjA3NzE1Myw2Ljk2ODYyIDAuOTkxMTUzLDIuOTEzMDUgMS4yMjU2NDgsNS42MTgzMSAxLjE0MTg3Nyw4LjQ0OTUxIC0wLjIxMTI2Niw3LjE0MDE2IC0zLjA2MTU5NCwxMC45NTI2OCAtNi4xMjI3MDksMTMuNjk0NDEgLTMuNzI2OTU1LDMuMzM4MSAtOC4zNDk3NTMsNS44NDU0NiAtMTMuMjc0MDAyLDYuMzQ2NTYgLTIuNTY5NDQzLDAuMjYxNDcgLTUuNjIxNTc5LDAuNTI5MzUgLTcuODkzNjczLDEuMDg3NDUgLTIuNjQ1MDM4LDAuNjQ5NyAtNC40ODEwNTEsMS42OTM1NCAtNS4wMjgwMjgsMy4yOTU0NCAtMC40NTQ4MTYsMS4zMzE5OSAtMC4zNzA1MzYsMi42MjI3MiAtMC4yMzE2ODgsMy44NzI1MSAwLjE5NTczNiwxLjc2MTg1IDEuMDM1MTE0LDMuNDQyMzQgMi4wNzkzMSw1LjA0MjM4IDAuODk1Mjc2LDEuMzcxODQgMi4xMTIwMDUsMi44MzIgNC4wODg3NzIsMy45MzcwOCAzLjE0MTg4NSwxLjc1NjQxIDQuNzU3MDk2LDIuMzI0NDUgOC40ODQzMiwyLjY5NTE5IDcuNTc0OTY1LDAuNTQwNDkgMTMuMTYzNTkxLC0xLjk2NjIxIDE3LjU2NDkxOCwtNi4wNjkwNyA0LjM5ODAzNywtNC4wOTk4IDcuNTYyMTg2LC0xMC4zMjQxMyA4LjE2NDE3NiwtMTkuMTg1NDMgMC4zMjAyMSwtNC43MTM0MiAtMC4zNDQ1OCwtMTAuMDMwNzcgLTEuMzg2MzkyLC0xNi4yODQ2OCBsIDE5Ljk5ODM3MiwyMC42MzA4MyBjIC0xLjkyMiwtMy41NjU5IC0zLjc2OTY1LC03LjgzMzc2IC00LjI5MjE4LC0xMi4xNjk1OCAtMC4xODE5OSwtMS41MTAxMSAtMC4wNjU4LC0zLjAyODQ3IDAuMDc1NCwtNC41MjgyOCAwLjY1NjI3LC02Ljk3Mjc5IDQuNjg3MzQsLTEzLjY2MTkxIDEzLjU0NjY0LC0xNy4xMjU0NSAyLjMwNjMsLTAuOTAxNjQgNC45OTgxMywtMS40Mzg4NSA3Ljk3Mzc4LC0xLjg3ODEzIDMuMTM5MTcsLTAuNDI0ODEgNS42MDgzLC0xLjE1NTA0IDcuNzkwODgsLTIuNzQzNzQgMS45NTY3OSwtMS40MjQzNSAzLjgwOTEyLC0zLjUwNjU2IDMuNjI1MzksLTguMTgxOTkgLTAuNDU3NDMsLTUuNzQ2NDEgLTUuMzM3MTYsLTkuMDM1NTAxIC05LjY3MzI1LC05LjY2NDEwNSAtMy4wNjI4NSwtMC40NDQwMjMgLTUuOTIyMzIsLTAuMTAwNTY1IC04LjU2MjgxLDAuMzE1MjA3IC03LjE4NDM5LDEuMTMxMjU1IC0xMy4yMTc3OSw0LjY2NzM0NyAtMTcuMTI2NCwxMC4yNTA4MDggLTMuNzE2MDQsNS4zMDgzNyAtNS40Njg5OCwxMi40MTcxMSAtNi4wNjc0OSwxOS43MTUwOSAtMC4zNDQxNCw0LjE5NjM1IDAuNDA0MzQsOC4yMTk3OSAwLjYzMjI3LDExLjM1MDc1IC01Ljg0MDAyLC02LjkyNTM1IC0xMS42MTkzMzUsLTEzLjY1NDYyIC0xOC41ODQ2MjYsLTE5LjgyMTM4IHoiIHN0eWxlPSJmaWxsOiNjOWQxMDI7ZmlsbC1vcGFjaXR5OjE7ZmlsbC1ydWxlOmV2ZW5vZGQ7c3Ryb2tlOm5vbmU7c3Ryb2tlLXdpZHRoOjAuMjtzdHJva2Utb3BhY2l0eToxIi8+PGcgaWQ9Imc0OCI+PHBhdGggaWQ9InBhdGgyIiBkPSJtIDEyOC43NDk3MSwxMTUuNTI1OTEgYyAzLjAxODM1LDYuMzk2NDMgNC45MzI0MSwxMi43NDEyNiA0Ljk5MjU0LDE3LjM4OTQ5IDAuMDUzMSw0LjEwMzk5IC0wLjg1NjExLDcuMzQ0MDUgLTIuOTQ5NTgsOS44NzQxNiAtNS4zMDgxNSw2LjQxNTI5IC0xNS41NzUxOCw5LjQyNTg3IC0yMy43NDg2OCwxNC4yNzY4NiAtNi4wMDk1MywzLjU2NjY3IC05LjI3NjgwNCw4LjM0MTA2IC0xMC4wNjUxMzUsMTQuMzkwMzYgMTMuNDA0NTg1LDEuMTI3IDI2LjM3MzEyNSw0LjE1ODQ0IDM5LjIwNDcwNSwtOC40MDczMyA2LjQ1OTIxLC04LjIxNzk3IDYuOTI2MzMsLTE2LjExNzQ3IDYuMjkzNjcsLTIyLjYyNjU3IC0xLjAwMTk3LC0xMC4zMDg3IC03LjE5MjExLC0xOC4zMTg5NiAtMTMuNzI3NTIsLTI0Ljg5Njk3IHoiIHN0eWxlPSJmaWxsOiNjOWQxMDI7ZmlsbC1vcGFjaXR5OjE7ZmlsbC1ydWxlOmV2ZW5vZGQ7c3Ryb2tlOm5vbmU7c3Ryb2tlLXdpZHRoOjAuMjtzdHJva2Utb3BhY2l0eToxIi8+PHBhdGggaWQ9InBhdGg0OCIgZD0ibSAxMjkuNDQzNzQsMTE3LjA0MTk2IGMgNy4xNzczOSw3LjgyMjE3IDkuMDc0ODQsMTYuNTgxMDMgOC4zODMzMywyNC4zMTQ1NSAtMS4wMTEzMSwxMS4zMDk5OCAtOC4yNDgyNiwyMC45OTY3MyAtMjQuMTU2OTQsMjIuODgwODUgMS42MTI2OSwtMC43MzgwMiAzLjg3MzA2LC0xLjQ1ODEzIDUuMzM4ODUsLTIuMTk5NCA0LjI4NDE5LC0yLjE2NjU3IDguMzg1ODEsLTQuMDc5NjMgMTMuMDYxMzQsLTEwLjI3NjAzIDEuMjYwNzUsLTEuNjcwODQgMi4wODg3MywtMy45NzkxMiAzLjIyMjY0LC02LjUxOTEyIDEuMjM4MjIsLTMuMzM4OTMgMS4zODg1OCwtNi40NzkyOCAxLjMyNDU1LC05LjQ0NzQzIC0wLjE0MjM2LC02LjU5OTczIC0yLjk4OTcxLC0xMi4xNjAxNSAtNi41Nzk3LC0xNy4zNDQ2NiAtMC4yNzI0MSwtMC4zOTM0MSAtMC41OTQwNywtMS40MDg3NiAtMC41OTQwNywtMS40MDg3NiB6IiBzdHlsZT0iZmlsbDojZmZmZmZmO2ZpbGwtb3BhY2l0eToxO2ZpbGwtcnVsZTpldmVub2RkO3N0cm9rZTpub25lO3N0cm9rZS13aWR0aDowLjI7c3Ryb2tlLW9wYWNpdHk6MSIvPjwvZz48ZyBpZD0iZzQ3Ij48cGF0aCBpZD0icGF0aDQxIiBzdHlsZT0iZGlzcGxheTppbmxpbmU7ZmlsbDojYzlkMTAyO2ZpbGwtb3BhY2l0eToxO2ZpbGwtcnVsZTpldmVub2RkO3N0cm9rZTpub25lO3N0cm9rZS13aWR0aDowLjIiIGQ9Im0gOTQuNjg4Nzk0LDkwLjEyMzE4MSBjIC00LjgwODcwNCwwLjAzMjIgLTkuNDIxMDI4LDAuNTU3MTcgLTEzLjUxODAzOCwyLjA5Mjg5NiAtNi41MTkzODYsMi40NDM3MyAtMTEuMjU4NTE0LDYuNjgzMzU2IC0xNC4yMjkxMDYsMTIuOTY5MjMzIC0zLjEwNTU3Nyw2LjU3MTUxIC0zLjg0NjA2OCwxMy45MTcwMiAtMC4wMDY4LDI1Ljg0MTUyIDEuNjA4NDYzLDQuOTk1NzggNy4xOTUwMjQsMTIuNDIzNDkgMTEuMDU1MjM4LDE1LjcyNTc1IC00LjI5ODg1OCwtOS41OTMxNyAtNi44NDIxNjEsLTIwLjM5NjI2IC0yLjA1NDE4OCwtMjYuNjQwNTMgNS45Nzc5NjEsLTcuNzk2MiAxOS4wOTE2OSwtMTAuNjA2MzQgMjYuNzg3OTgsLTE2LjU0OTQ4IDQuNDA3NjIsLTMuNDAzNTkgNi4xNDI5OCwtNy42MDU3NTkgNy4yMjQ4NiwtMTIuMzg3MTA5IC00Ljg4MzEyLC0wLjQzNjM5IC0xMC40NTEyNzUsLTEuMDg0NDgzIC0xNS4yNTk5NzksLTEuMDUyMjggeiIvPjxwYXRoIGlkPSJwYXRoNDciIGQ9Im0gNzcuNjYxNjcxLDE0Ni4wMDU0OSAtMC4zODA5OTksLTAuODk2NyBjIDAsMCAtMy45ODA4MjQsLTYuMjM1NDIgLTQuOTY3OTM3LC04LjgxNjIgLTIuNDU2NzU2LC02LjQyMzE0IC0yLjI0NDE5NSwtMTIuMDU3MzYgLTEuMjk3NjE3LC0xNi40MjA1MyAxLjYyNzM4NCwtNy41MDEyOSA2LjQwMTE1MywtMTIuNDM4ODIgNy41MjA5MzksLTEzLjM3MTI4IDQuNzA2NTc5LC0zLjkxOTIxIDguNjk3MTMsLTUuODQ1MjggMTQuNDQ3NDQzLC04LjAyNTYyNyAtNi43NDk3NzEsMC41MDk3OTEgLTE4LjM0NjE1NiwzLjk0ODAyNyAtMjIuNzA4NzU5LDE2Ljc5Mjk0NyAtMS44Mjc5MjIsNi42MDM2NCAtMS41NTI0NzUsMTEuOTU2NTkgLTAuMjgyOTgzLDE2LjUxMDEzIDEuNzYyODYxLDYuMzIzMjEgMy43NDEzODQsOS43NTE4OSA3LjY2OTkxMywxNC4yMjcyNiB6IiBzdHlsZT0iZGlzcGxheTppbmxpbmU7ZmlsbDojZmZmZmZmO2ZpbGwtb3BhY2l0eToxO2ZpbGwtcnVsZTpldmVub2RkO3N0cm9rZTpub25lO3N0cm9rZS13aWR0aDowLjI7c3Ryb2tlLWRhc2hhcnJheTpub25lO3N0cm9rZS1vcGFjaXR5OjEiLz48L2c+PC9nPjwvc3ZnPg==;" vertex="1" parent="1">
          <mxGeometry x="39" y="170" width="60" height="55.91" as="geometry" />
        </mxCell>
      </root>
    </mxGraphModel>
  </diagram>
</mxfile>
